<svg xmlns="http://www.w3.org/2000/svg" xmlns:xlink="http://www.w3.org/1999/xlink" width="1024" height="600" viewBox="0 0 1024 600"><defs><filter id="a"><feGaussianBlur stdDeviation="4" in="SourceAlpha"/><feOffset result="offsetblur"/><feFlood flood-color="#727272"/><feComposite operator="in" in2="offsetblur"/><feMerge><feMergeNode/><feMergeNode in="SourceGraphic"/></feMerge></filter></defs><g filter="url(#a)"><g><g><linearGradient id="b" gradientUnits="userSpaceOnUse" x1="494" y1="326.858" x2="494" y2="524.151"><stop offset="0" stop-color="#808080"/><stop offset="1" stop-color="#333"/></linearGradient><path fill="url(#b)" d="M730.8 499.1l-267-172.2-206.6 197.3"/></g><g><linearGradient id="c" gradientUnits="userSpaceOnUse" x1="94.593" y1="334" x2="94.593" y2="480.362"><stop offset="0" stop-color="#808080"/><stop offset="1" stop-color="#333"/></linearGradient><path fill="url(#c)" d="M344 454.6L86.5 334l-241.3 146.4"/></g><g><linearGradient id="d" gradientUnits="userSpaceOnUse" x1="292.811" y1="314.051" x2="292.811" y2="460.413"><stop offset="0" stop-color="#808080"/><stop offset="1" stop-color="#333"/></linearGradient><path fill="url(#d)" d="M480.3 434.6L286.7 314.1 105.3 460.4"/></g><g><defs><path id="e" d="M480.3 434.6L286.7 314.1 105.3 460.4"/></defs><clipPath id="f"><use xlink:href="#e" overflow="visible"/></clipPath><path fill="#E8E8E8" d="M241.3 344.4c-1.9 2-1.3 4.3 1.3 5.2l7 2.3c2.6.9 6.7.4 9-1l7.4-4.4c2.4-1.4 6-1.1 8.2.6l3.8 3.1c2.1 1.8 5.7 1.9 7.9.2l4.9-3.6c2.2-1.6 6-1.8 8.4-.5l7.8 4.5c2.4 1.4 6 .9 8-.9l2.8-2.6c2-1.9 5.5-2.1 7.7-.6l5.3 3.7c2.2 1.6 5.8 1.4 7.9-.4l3.4-3c2.1-1.8 2.1-4.8.1-6.6l-48.6-43.8c-2-1.8-5.3-1.7-7.2.3l-45.1 47.5z" clip-path="url(#f)"/></g><g><defs><path id="g" d="M730.8 499.1l-267-172.2-206.6 197.3"/></defs><clipPath id="h"><use xlink:href="#g" overflow="visible"/></clipPath><path fill="#E8E8E8" d="M419.1 346.8c-1.6 2.2-.9 4.9 1.6 6l3.5 1.5c2.5 1.1 6.4.6 8.5-1.1l4.4-3.4c2.2-1.7 5.5-1.4 7.4.6l2 2.2c1.9 2 5 2.1 7 .2l2.7-2.6c2-1.9 5.4-2.1 7.6-.4l4.7 3.5c2.2 1.7 5.4 1.3 7.1-.9l1.4-1.7c1.7-2.1 4.8-2.4 6.8-.5l3 2.7c2 1.9 5.2 1.7 7-.4l1.8-2c1.8-2.1 1.9-5.5.1-7.5l-36.5-42.9c-1.8-2.1-4.6-2-6.2.2l-33.9 46.5z" clip-path="url(#h)"/></g><g><defs><path id="i" d="M344 454.6L86.5 334l-241.3 146.4"/></defs><clipPath id="j"><use xlink:href="#i" overflow="visible"/></clipPath><path fill="#E8E8E8" d="M32.5 358.6c-1.8 2.1-1.2 4.5 1.4 5.5l8.8 3.2c2.6.9 6.6.5 8.9-1l9.2-6c2.3-1.5 5.9-1.2 7.9.6l5.2 4.7c2 1.8 5.5 1.9 7.6.2l6.5-5.2c2.2-1.7 5.8-1.9 8.1-.5l9.7 6.1c2.3 1.5 5.8 1 7.7-.9l4.1-4.2c1.9-2 5.3-2.2 7.4-.6l6.9 5.3c2.2 1.7 5.6 1.5 7.6-.4l4.8-4.5c2-1.9 2-5 .1-6.9L90 300.5c-2-1.9-5-1.8-6.9.3l-50.6 57.8z" clip-path="url(#j)"/></g></g><g><path fill="#2E732E" d="M196.5 143.8h-.1c0-.1.1-.1.1-.2v.2zm0-.3c40.7-63.5 5.3-119-34.5-124.7-48.6-7-76.7 21.1-64.7 67.6-63.3 19.8-49.1 105.5-29.1 114-24.9 14.6-28.5 84 15.7 96.7 10.4 3 43.8 2.4 51.6-21.9 1.1 3.5 4.8 6.8 4.8 6.8s25.1 9.9 44.6-8c13.7-12.5 28.2-36.7 12.7-67.7 20.4-12.8 16.4-57.1-1.1-62.8z"/><path fill="#654D00" d="M142.7 438.4s-10-31-11.5-90.4c-1.5-59.4 5.7-62.8 5.7-62.8s6.1-1.5 13.4-21.4c7.3-19.9 9.2-30.3 9.2-30.3s-7.1 19.9-14.3 29.9c-7.2 10-7.9 8-7.9 8s3.4-55.9 4.2-79.7c.8-23.7 3.2-69.3 3.7-70.5.5-1.1 21.6-28 21.6-28l-3.4-1.9-18.8 18.8.8-42.5-3.8 8.8-6.5 109.9s-10-9.2-16.9-26.4c-6.9-17.2-14.6-32.6-14.6-32.6v1.9s2.3 13 8.8 29.5c6.5 16.5 22.8 42.9 22.8 42.9s-9.4 82.7-12.1 114.9c-2.7 32.2-2.3 43.3-2.3 43.3L101 276l2.3-33.7-.4-5.4-6.1 35.2-5.4-3.1s1.8 2 3.4 9.2c2.7 11.9 16.5 71.2 21.8 96.1 5.4 24.9 2.3 64.1 2.3 64.1s1.3-.3 11-.1c8.9.3 12.8.1 12.8.1z"/><g fill="#1F9921"><path d="M91.2 271.1s-6 .1-8.9-6.4c-2.8-6.5-2.1-6-2.1-6s8.1-.6 11 5.8c2.9 6.4 2.8 7.1 2.8 7.1l-2.8-.5zM143 155.4s.7-4.3 5.7-5.6c5-1.2 4.6-.7 4.6-.7s-.6 5.9-5.6 7.2c-5 1.3-5.4 1.1-5.4 1.1l.7-2zM144.1 75.3s.7-4.3 5.7-5.6c5-1.2 4.6-.7 4.6-.7s-.6 5.9-5.6 7.2c-5 1.3-5.4 1.1-5.4 1.1l.7-2zM143.2 155.9s3.9-2 7.9 1.3 3.3 3.2 3.3 3.2-5.1 3-9.1-.2-4.2-3.7-4.2-3.7l2.1-.6zM102.7 238.8s-1.1-5.9 4.9-9.8c6-3.8 5.6-3 5.6-3s1.9 7.9-4 11.8c-5.8 3.9-6.5 3.9-6.5 3.9v-2.9zM101.1 240.6s-4-.7-5-5.4-.5-4.2-.5-4.2 5.4.7 6.5 5.3c1.1 4.6.9 5.1.9 5.1l-1.9-.8zM158.7 236.1s-1.7-3-.9-6.3c.9-3.3 4.5-7.4 4.5-7.4s3.4 5.1 2.6 8.7c-.8 3.6-6.2 5-6.2 5zM93 271.4s-1.7-1.9-1.6-4.4c.1-2.5 2.1-6 2.1-6s3.2 3.1 3.2 5.8c0 2.8-3.7 4.6-3.7 4.6zM155.7 247.4s.2-1.7 1.6-2.8c1.3-1.1 4.1-1.6 4.1-1.6s-.2 3.1-1.6 4.3c-1.5 1.2-4.1.1-4.1.1zM155.4 247.2s1.6-.8 3.2-.2c1.6.5 3.6 2.5 3.6 2.5s-2.7 1.6-4.5 1c-1.7-.5-2.3-3.3-2.3-3.3zM106.1 133.1s-3.3.2-5.8-1.8c-2.5-2.1-4.5-6.8-4.5-6.8s5.7-.9 8.5 1.3c2.7 2.1 1.8 7.3 1.8 7.3zM164.2 95.4s.2-3.3 2.7-5.5c2.4-2.2 7.4-3.4 7.4-3.4s0 5.8-2.5 8.2c-2.6 2.4-7.6.7-7.6.7zM162.7 95.2s-3.9-2.6-1-6.7 5.6-4.2 5.6-4.2.9 2.7.7 5.5c-.3 5.3-5.3 5.4-5.3 5.4zM105.8 133.6s-2-2.6-1.7-5.8c.3-3.2 3.2-7.6 3.2-7.6s3.9 4.3 3.6 7.8c-.2 3.5-5.1 5.6-5.1 5.6zM116 165.4s-2.3 1.2-4.8.6c-2.5-.7-5.5-3.6-5.5-3.6s3.9-2.5 6.6-1.8c2.6.7 3.7 4.8 3.7 4.8zM143.6 75.8s-4.9-1-5.3-7.1c-.4-6 2.8-11.8 2.8-11.8s4.3 4.5 5.5 9.4c1.3 5-3 9.5-3 9.5zM142.3 76.6s-2.4 1.3-4.8-1.1c-2.4-2.4-3.1-6.1-3.1-6.1s3.5.4 5.8 2c2.2 1.7 2.1 5.2 2.1 5.2zM161.7 94.5s-2.2.7-2.6-3.2c-.4-3.9.5-5.5.5-5.5s1.2 1 2.1 2.7c1.6 3.1 0 6 0 6z"/></g></g><g><path fill="#604F3F" d="M0 423.3c2 .4 190.8 16.7 266.8 12.8 75.9-3.8 400.6-20.5 497.2-16.1 96.7 4.4 260 3.3 260 3.3v178.4H0V423.3z"/><path fill="#73571E" d="M826.7 417.3c-1.2.4-.4 2.7-.2 3.6.3 1.4.7 2.9 1.4 4.2.8 1.4.2 3.9 2.5 3.9.6 0 2-.2 2.3-.9.3-.5-.3-1.4-.5-1.9-.5-1.6-.5-3.1-.3-4.7.2-1.2 0-3.3-1.2-4-1.2-.8-2.8-.6-4-.2z"/><path fill="#B39C6B" d="M825.2 432.5c-.2-.8-.7-2.5-1.7-2.6-.1.3-.2.5-.3.7v1.9c0 .3-.1.9.1 1.2.2.3.5.5.7.8.2.5.3.9.3 1.4 0 .5.1 1 .3 1.4.3.5.6 1.1 1.2 1.4.9.4 1.7.9 2.7 1.1.5.1 1 .1 1.5.2 1.2.1 2.6.2 3.9 0 .5-.1.9-.1 1.4-.2.5-.1.9-.2 1.4-.3.5-.1 1-.2 1.5-.4.1-.1.3-.1.4-.2.3-.2.3-.4.3-.7 0-.5 0-.9-.1-1.4 0-.1 0-.3-.1-.4-.1-.2-.6-.3-.8-.4-.4-.1-.7.2-1.1.2-.9.1-1.8 0-2.8-.1-1.3-.1-2.5-.4-3.8-.6-.8-.2-1.9-.1-2.7-.5-1.1-.3-2-1.3-2.3-2.5z"/><path fill="#8A6924" d="M826.5 420.2c0 .6.2 1.4.4 1.9s.4 1 .7 1.5c.2.4.5.8.7 1.3.2.5.3 1 .5 1.4.2.4.2.8.3 1.1.1.3.3.4.4.7.1.2.1.5.2.7.5.1 1.8-.3 2.1-.4.4-.1-.1-.6-.2-.9.1-.3.1-.6 0-.8-.1-.8-.5-1.6-.4-2.5 0-.5.1-1 .2-1.5.1-.9.3-1.7.2-2.6-.1-.8-.4-1.6-.7-2.3-.1-.3-.2-.6-.4-.8.3-.1.6-.1.9.1.3.3.5.8.6 1.2.2.9.1 1.9.2 2.8 0 .9.3 1.8.4 2.7.1 1.3.4 2.8 1 4 .2.3.3.7.5 1 .3.4.5.9.8 1.3.4.5.7 1 1 1.5.3.5.5.9.8 1.4.2.4.4.6.7.9.2.2.3.5.4.7.2.6.3 1.4-.2 1.9-.6.6-1.7.8-2.5.9-.9.2-1.7.3-2.6.3-1 0-2.1.1-3.1-.1-.7-.1-1.4-.3-2-.7-.3-.2-.6-.4-.8-.6-.2-.2-.5-.4-.7-.6-.2-.2-.3-.6-.5-.9-.2-.3-.3-.6-.3-1 0-.5 0-1.1-.1-1.5-.2-.8-1.1-1.1-1.3-2-.1-.7.1-1.4.2-2.1 0-.4.1-.9.1-1.3 0-.3.1-.7.1-1 0-.7.2-1.4.3-2.1.1-.8 0-1.7-.1-2.5-.1-.4-.1-.7-.2-1.1 0-.4 0-.8-.1-1.2-.1-.6-.3-1.3 0-2 .1-.2.3-.4.5-.6-.1.1 0 .6 0 .7.1.2.4.3.6.3.5.1 1.2-.1 1.5.4.2.9-.1 1.7-.1 2.4z"/><path fill="#73571E" d="M827.2 432.2h-.1c-.4-.1-.6-.4-.8-.7-.1-.2-.3-.4-.5-.6-.1 0-.1-.1-.2 0-.2 0-.3.2-.4.4-.1.1-.2.2-.3.1-.1-.1-.2-.2-.1-.3.1-.3.4-.6.7-.7.2-.1.5 0 .6.1.2.2.4.4.6.7.2.2.3.5.5.5.1 0 .2 0 .4-.2l.6-.6c.1-.2.3-.3.4-.5.3-.3.7-.6.8-1.1.2-.5 0-.9-.2-1.3 0-.1-.1-.2-.1-.3 0-.1 0-.3.1-.3.1-.1.3 0 .3.1s.1.2.1.3c.2.5.5 1.1.2 1.7-.2.5-.6.9-.9 1.3l-.4.4c-.2.2-.4.5-.7.7-.2.2-.4.3-.6.3zM835.1 430.8c-.1 0-.1 0-.2-.1s-.2-.2-.4-.2-.4-.1-.6-.1c-.4 0-.9-.1-1.3-.3-.5-.3-.6-.9-.8-1.4-.1-.3-.2-.5-.3-.7-.1-.1-.1-.3-.1-.4 0-.1 0-.1-.1-.2 0-.1 0-.3.1-.3s.3 0 .3.1.1.2.1.3c0 .1 0 .2.1.3.1.2.2.5.3.8.1.5.3.9.6 1.1.3.2.6.2 1 .3.2 0 .4 0 .7.1.2.1.5.2.7.4.1.1.1.3 0 .3h-.1z"/><path fill="#B39C6B" d="M828.6 429.6c-.2 0-.3-.1-.3-.3 0-.9 3.2-1.1 3.3-1.1 1-.1 1.5 0 1.5.4 0 .1-.1.3-.2.3s-.2 0-.3-.1c-.6-.2-3.4.3-3.8.6.1.1 0 .2-.2.2z"/><path fill="#8A6924" d="M831.7 438.7c-.9 0-1.8-.1-2.8-.3-1.1-.2-2.3-.5-3.2-1.4-.8-.8-1.1-2-1.3-2.9-.1-.2-.1-.5-.1-.7 0-.3-.1-.6-.2-.8-.1-.3-.5-.9-.8-1.1-.1-.1-.1-.2 0-.3.1-.1.2-.1.3 0 .4.3.8.9 1 1.3.1.3.1.6.2.9 0 .2.1.4.1.6.2.8.5 2 1.2 2.7.8.8 1.9 1 2.9 1.2 1.3.2 2.5.3 3.6.2.6 0 1.2-.2 1.8-.3l.5-.1c.6-.1 1.2-.3 1.8-.5l.2-.1c.4-.2 1.1-.4 1.3-.7.1-.1.2-.2.3-.1.1.1.2.2.1.3-.3.5-1 .8-1.6.9l-.2.1c-.6.2-1.2.4-1.9.5l-.5.1c-.6.1-1.2.2-1.9.3-.1.1-.4.2-.8.2z"/><path fill="#B39C6B" d="M826.1 421.6c-.1 0-.2 0-.2-.1s-.1-.2 0-.3c.1-.2.2-.3 1.4-.7.6-.2 1.4-.5 2-.7.1 0 .2-.1.3-.1.6-.2 1-.4 1.5-.8l.2-.2.3-.3c0-.1 0-.1.1-.2s.3-.1.4.1c.2.3-.1.5-.4.8l-.2.2c-.5.4-1 .7-1.6.9-.1 0-.2.1-.3.1-.6.2-1.3.5-2 .7-.5.2-1 .3-1.1.4l-.1.1c-.2.1-.3.1-.3.1zM831.9 420.9c-.1 0-.1 0-.2-.1-.1 0-.1-.1-.1-.2-.3-.1-1.2-.4-1.8-.5-.6-.2-1.2-.3-1.7-.5-1-.4-2-.5-2.3-.4-.1.1-.2.1-.3.1-.1 0-.3-.2-.2-.3 0-.1.1-.2.2-.3.5-.3 1.9 0 2.8.4.4.1 1 .3 1.6.5 1.5.4 2.1.6 2.2.9 0 .1 0 .2-.1.3.1 0 0 .1-.1.1z"/><path stroke="#B39C6B" stroke-width="4" stroke-linecap="round" stroke-miterlimit="10" d="M833.5 428.3" fill="none"/><path fill="#B39C6B" d="M826.8 421.8c.3 0 .6.1 1 .2.5.1.9.1 1.2.2 1 .2 2 .5 2.3.7v.1c0 .1.1.2.2.2h.1c.2-.1.2-.2.2-.3 0-.1-.1-.5-2.8-1.1-.3-.1-.8-.1-1.2-.2-.4-.1-.9-.1-1.3-.2.2.1.3.3.3.4zM827.6 423.6c0 .1.1.2.1.3 1.4.2 3.3.7 3.7.9 0 .1.1.1.2.1h.1c.1 0 .2-.1.3-.2 0-.1 0-.2-.1-.3-.3-.4-3-1-4.4-1.1 0 .1 0 .2.1.3zM828.7 425.8c1 .1 2.7.4 3 .6 0 .1.1.2.3.2.2 0 .3-.1.3-.3 0-.4-.4-.6-3.7-1.1-.1.2 0 .4.1.6zM826.9 423.8c.1 0 .1 0 .2-.1s.1-.1.1-.2c.1-.1.4-.3 1.5-.8.6-.3 2-1.1 2.9-1.6v-.6c-.8.5-2.4 1.4-3.1 1.7-1.8.8-1.8 1.1-1.9 1.2 0 .1 0 .2.1.3 0 .1.1.1.2.1zM827.6 425.7c.1 0 .1 0 .2-.1s.1-.2.1-.3c.1-.2.6-.7 1.1-.8.4-.1 1.6-.6 2.3-1 0-.2.1-.5.1-.7-.5.3-2.2 1-2.6 1.2-.7.2-1.4.8-1.5 1.3-.1.2 0 .3.1.4 0-.1.1 0 .2 0zM828.4 427.5s.1 0 0 0c.2 0 .3-.2.3-.3.1-.4 1.8-1.6 2.6-2.2 0-.2-.1-.4-.1-.6-.8.4-2.3 1.5-2.8 2.1-.3.3-.4.5-.3.7.1.3.2.3.3.3zM829.6 428.3c.4-.3 1.3-1 2.1-1.5v-.1c0-.2-.1-.3-.1-.5-1 .7-1.7 1.2-2.2 1.6.1.1.1.3.2.5zM829.3 427.7c.8.1 2.1.4 2.6.5 0-.2-.1-.3-.2-.6-.7-.2-1.6-.3-2.6-.5 0 .1 0 .2.1.3 0 .1 0 .2.1.3z"/><path fill="#73571E" d="M811.8 418.3c1.2.4.4 2.7.2 3.6-.3 1.4-.7 2.9-1.4 4.2-.8 1.4-.2 3.9-2.5 3.9-.6 0-2-.2-2.3-.9-.3-.5.3-1.4.5-1.9.5-1.6.5-3.1.3-4.7-.2-1.2 0-3.3 1.2-4 1.2-.8 2.8-.6 4-.2z"/><path fill="#B39C6B" d="M813.3 433.5c.2-.8.7-2.5 1.7-2.6.1.3.2.5.3.8v1.9c0 .3.1.9-.1 1.2-.2.3-.5.5-.7.8-.2.4-.3.9-.3 1.4 0 .5-.1 1-.3 1.4-.3.5-.6 1.1-1.2 1.4-.9.4-1.7.9-2.7 1.1-.5.1-1 .1-1.5.2-1.2.1-2.6.2-3.9 0-.5-.1-.9-.1-1.4-.2-.5-.1-.9-.2-1.4-.3-.5-.1-1-.2-1.5-.4-.1-.1-.3-.1-.4-.2-.3-.2-.3-.4-.3-.7 0-.5 0-.9.1-1.4 0-.1 0-.3.1-.4.1-.2.6-.3.8-.4.4-.1.7.2 1.1.2.9.1 1.8 0 2.8-.1 1.3-.1 2.5-.4 3.8-.6.8-.1 1.9-.1 2.7-.5 1.1-.4 2-1.4 2.3-2.6z"/><path fill="#8A6924" d="M812 421.2c0 .6-.2 1.4-.4 1.9s-.4 1-.7 1.5c-.2.4-.5.8-.7 1.3-.2.5-.3 1-.5 1.4-.2.4-.2.8-.3 1.1-.1.3-.3.4-.4.7-.1.2-.1.5-.2.7-.5.1-1.8-.3-2.1-.4-.4-.1.1-.6.2-.9-.1-.3-.1-.6 0-.8.1-.8.5-1.6.4-2.5 0-.5-.1-1-.2-1.5-.1-.9-.3-1.7-.2-2.6.1-.8.4-1.6.7-2.3.1-.3.2-.6.4-.8-.3-.1-.6-.1-.9.1-.3.3-.5.8-.6 1.2-.2.9-.1 1.9-.2 2.8 0 .9-.3 1.8-.4 2.7-.1 1.3-.4 2.8-1 4-.2.3-.3.7-.5 1-.3.4-.5.9-.8 1.3-.4.5-.7 1-1 1.5-.2.5-.5.9-.8 1.4-.2.4-.4.6-.7.9-.2.2-.3.5-.4.7-.2.6-.3 1.4.2 1.9.6.6 1.7.8 2.5.9.9.2 1.7.3 2.6.3 1 .1 2.1.1 3.1-.1.7-.1 1.4-.3 2-.7.3-.2.6-.4.8-.6.2-.2.5-.4.7-.6.2-.2.3-.6.5-.9.2-.3.3-.6.3-1 0-.5 0-1.1.1-1.5.2-.8 1.1-1.1 1.3-2 .1-.7-.1-1.4-.2-2.1 0-.4-.1-.9-.1-1.3 0-.3-.1-.7-.1-1 0-.7-.2-1.4-.3-2.1-.1-.8 0-1.7.1-2.5.1-.4.1-.7.2-1.1 0-.4 0-.8.1-1.2.1-.6.3-1.3 0-2-.1-.2-.3-.4-.5-.6.1.1 0 .6 0 .7-.1.2-.4.3-.6.3-.5.1-1.2-.1-1.5.4-.1.9.1 1.7.1 2.4z"/><path fill="#73571E" d="M811.3 433.2c-.2 0-.4-.1-.7-.3-.3-.2-.5-.4-.7-.7-.1-.2-.2-.3-.4-.4-.4-.4-.7-.7-.9-1.2-.2-.6 0-1.2.2-1.7 0-.1.1-.2.1-.3 0-.1.2-.2.3-.1.1 0 .2.2.1.3 0 .1-.1.2-.1.3-.2.5-.4.9-.2 1.3s.5.7.8 1.1c.2.1.3.3.4.5l.6.6c.2.1.3.2.4.2.2 0 .3-.3.5-.5s.3-.5.6-.7c.2-.1.4-.2.6-.1.3.1.6.3.7.6.1.1 0 .3-.1.3-.1.1-.3 0-.3-.1-.1-.2-.2-.3-.4-.4h-.2c-.2.1-.3.3-.5.6s-.4.6-.8.7c.1 0 0 0 0 0zM803.4 431.8c-.1 0-.1 0-.1-.1-.1-.1-.1-.2 0-.3.2-.3.5-.4.7-.4.2-.1.4-.1.7-.1.4 0 .7-.1 1-.3.3-.2.4-.7.6-1.1.1-.3.2-.6.3-.8 0-.1.1-.2.1-.3 0-.1 0-.2.1-.3 0-.1.2-.2.3-.1.1 0 .2.2.1.3 0 .1 0 .1-.1.2 0 .1-.1.3-.1.4-.1.2-.2.4-.3.7-.1.5-.3 1.1-.8 1.4-.4.3-.8.3-1.3.3-.2 0-.4 0-.6.1-.2.1-.3.1-.4.2 0 .2-.1.2-.2.2z"/><path fill="#B39C6B" d="M809.9 430.6c.2 0 .3-.1.3-.3 0-.9-3.2-1.1-3.3-1.1-1-.1-1.5 0-1.5.4 0 .1.1.3.2.3s.2 0 .3-.1c.6-.2 3.4.3 3.8.6 0 .1.1.2.2.2z"/><path fill="#8A6924" d="M806.8 439.6h-.9c-.6 0-1.3-.2-1.9-.3l-.5-.1c-.7-.1-1.3-.3-1.9-.5l-.2-.1c-.5-.2-1.3-.5-1.6-.9-.1-.1 0-.3.1-.3.1-.1.3 0 .3.1.2.3.9.6 1.3.7l.2.1c.5.2 1.1.3 1.8.5l.5.1 1.8.3c1.1.1 2.3 0 3.6-.2 1-.2 2.2-.5 2.9-1.2.7-.7 1-1.8 1.2-2.7 0-.2.1-.4.1-.6 0-.3.1-.6.2-.9.1-.4.6-1 1-1.3.1-.1.3-.1.3 0 .1.1.1.3 0 .3-.3.2-.7.8-.8 1.1-.1.2-.1.5-.2.8 0 .2-.1.5-.1.7-.2.9-.5 2.1-1.3 2.9-.8.9-2.1 1.2-3.2 1.4-.9.1-1.8.1-2.7.1z"/><path fill="#B39C6B" d="M812.5 422.6c.1 0 .2 0 .2-.1.1-.1.1-.2 0-.3-.1-.2-.2-.3-1.4-.7-.6-.2-1.4-.5-2-.7-.1 0-.2-.1-.3-.1-.6-.2-1-.4-1.5-.8l-.2-.2-.3-.3c0-.1 0-.1-.1-.2s-.3-.1-.4.1c-.2.3.1.5.4.8l.2.2c.5.4 1 .7 1.6.9.1 0 .2.1.3.1.6.2 1.3.5 2 .7.5.2 1 .3 1.1.4l.1.1c.2.1.2.1.3.1zM806.6 421.9c.1 0 .1 0 .2-.1.1 0 .1-.1.1-.2.3-.1 1.2-.4 1.8-.5.6-.2 1.2-.3 1.7-.5 1-.4 2-.5 2.3-.4.1.1.2.1.3.1.1 0 .3-.2.2-.3 0-.1-.1-.2-.2-.3-.5-.3-1.9 0-2.8.4-.4.1-1 .3-1.6.5-1.5.4-2.1.6-2.2.9 0 .1 0 .2.1.3 0 0 0 .1.1.1z"/><path stroke="#B39C6B" stroke-width="4" stroke-linecap="round" stroke-miterlimit="10" d="M805 429.3" fill="none"/><path fill="#B39C6B" d="M811.7 422.8c-.3 0-.6.1-1 .2-.5.1-.9.1-1.2.2-1 .2-2 .5-2.3.7v.1c0 .1-.1.2-.2.2h-.1c-.2-.1-.2-.2-.2-.3 0-.1.1-.5 2.8-1.1.3-.1.8-.1 1.2-.2.4-.1.9-.1 1.3-.2-.2.1-.2.3-.3.4zM810.9 424.6c0 .1-.1.2-.1.3-1.4.2-3.3.7-3.7.9 0 .1-.1.1-.2.1h-.1c-.1 0-.2-.1-.3-.2 0-.1 0-.2.1-.3.3-.4 3-1 4.4-1.1 0 .1 0 .2-.1.3zM809.9 426.8c-1 .1-2.7.4-3 .6 0 .1-.1.2-.3.2-.2 0-.3-.1-.3-.3 0-.4.4-.6 3.7-1.1 0 .2-.1.4-.1.6zM811.7 424.8c-.1 0-.1 0-.2-.1s-.1-.1-.1-.2c-.1-.1-.4-.3-1.5-.8-.6-.3-2-1.1-2.9-1.6v-.6c.8.5 2.4 1.4 3.1 1.7 1.8.8 1.8 1.1 1.9 1.2 0 .1 0 .2-.1.3-.1.1-.2.1-.2.1zM810.9 426.7c-.1 0-.1 0-.2-.1s-.1-.2-.1-.3c-.1-.2-.6-.7-1.1-.8-.4-.1-1.6-.6-2.3-1 0-.2-.1-.5-.1-.7.5.3 2.2 1 2.6 1.2.6.2 1.4.8 1.5 1.3.1.2 0 .3-.1.4 0-.1-.1 0-.2 0zM810.1 428.5c-.2 0-.3-.2-.3-.3-.1-.4-1.8-1.6-2.6-2.2 0-.2.1-.4.1-.6.8.4 2.3 1.5 2.8 2.1.3.3.4.5.3.7-.1.2-.2.3-.3.3zM808.9 429.3c-.4-.3-1.3-1-2.1-1.5v-.1c0-.2.1-.3.1-.5 1 .7 1.7 1.2 2.2 1.6 0 .1-.1.3-.2.5zM809.3 428.7c-.8.1-2.1.4-2.6.5 0-.2.1-.3.2-.6.7-.2 1.6-.3 2.6-.5 0 .1 0 .2-.1.3 0 .1-.1.2-.1.3z"/><path fill="#DECBA2" d="M786 324.7l-4.6-1.8c.6-1.5.6-3.4.6-5.4.1-4.3.2-10.1 6.6-13.3l2.2 4.4c-3.6 1.8-3.8 4.4-3.9 8.9 0 2.5 0 4.9-.9 7.2zM810.9 291c1.1 2.4.9 3.8 1.5 6.4.3 1.2.1 9.9 1 10.8 1.6 1.6 6.1 3 8.2 3.2 3.5.3 4-9.2 4.5-12.6.5-3.6 1.3-5.8 1.4-9.4"/><path fill="#969390" d="M834.1 333.8c-.2-6.5.2-14.1 0-20.5-.1-1.9.1-4 .2-6.7.5 3.4.6 6.1-.1 8.7-.5 1.9 6.1 4.4 6.6 2.2 1.4-5.5 1.1-12.9 0-17.7-.4-2-1.9-2.5-6.1-3.2-2.4-.4-6.4-.6-7.7-.8-.5.7-.6 1.5-1.5 2.3-2.2 2.1-2.9 1.4-3.9 1.8-.2 1.6-.3 3-1.1 5.5-.2.7-.8 2.2-1.1 2.7-.5-1.9-.9-3-1.3-4.7-.1-.6-.5-2.4-.7-3.3-.1-.4-.9-.8-1.4-1-2.4-1.1-4-2.8-4.1-3.1-2.2 0-8.1.7-10.3 1-3.9.5-9.6 2.3-13.7 5.5-2.2 1.8 3 7.5 4.4 6.7 3.1-1.6 5.2-2.8 8.3-3-.5 3.4-.7 12.3-.4 15.7.3 4 0 7.9.2 11.9.1 3.1.7 6.1.9 9.2.1 1.1.1 2.1.1 3.2-.7.8-1.6 1.2-.5 1.9 1.2.9 4 .9 5.4 1 4.5.3 9.1.1 13.6.1 3.6 0 7.4-.5 11 0 1.6.2 5.8.9 4.7-2.2-.9-2.5-1-4.7-1-7.4.1-1.7-.4-3.7-.5-5.8z"/><path fill="#4D576B" d="M804.3 422.7c1.1.4 10.1.2 11.1-.8.3-3.5.8-27.4 1-30.7.8-9.9.9-20.6 2.7-30.4 0-.1 0-.1 0 0 3.5 7.3 3.3 19.1 3.1 27-.1 3.8.8 31.9 1.2 34.1 1.9.4 8.4.6 10.7-.6.2-2 .7-12.1.7-14.4 0-1.6.7-35.1.6-45.8 0-2.2.4-4.5.6-6.7.1-1.2.1-2.3.1-3.5 0-.5-.1-2.2-.2-2.5-.2 0-1.4 0-1.7-.1-1-.1-2.1.1-3.1.2-2 .1-4.1 0-6.2.1-1.8.1-3.7 0-5.6.1-1.8.1-3.6.4-5.4.4-3.8.1-7.4.3-11.2-.1-2.3-.2-2.5 1-2.2 3.3.4 2.8.8 5.6 1 8.4.1 2.6 1.8 56.9 2.8 62z"/><path fill="#E8D4AA" d="M805.1 283c.8 2.8 1.7 7.3 4.6 8.7 2 1 6.1.1 8.3 0 2.9-.1 4.4.5 7.3.5 5.7-.1 6-5.3 7.5-9.9.9-2.7 2.4-5.2 3.4-7.9.9-2.4 1.7-6.2 1.2-8.8-.2-.8-.4-1.2-1.1-1.6-2.9-1.4-7.3-.2-10.2.6-4.5 1.2-9.3 1.3-13.9 1.8-2.2.2-6.1.4-8 1.6-2 1.3-.9 3.9-.6 5.9.3 3.1.7 6.1 1.5 9.1z"/><path fill="#FFF3DB" d="M814.8 269.1c-.3 1.9 0 3.4-1.9 4.5-1.1.6-2.8.7-4 .1-1.3-.6-1.7-2.2-1.8-3.5v-.6M831 268.2c-.3 1.9 0 3.4-1.9 4.5-1.1.6-2.8.7-4 .1-1.3-.6-1.7-2.2-1.8-3.5v-.6"/><path fill="#CCBA95" d="M820.9 265.5c-.1 2.7-.1 5.4 0 8 .1 2 .9 4.9-.7 6.5-.6.6-1.1.9-1.8.3-1.2-1-.6-2.4-.6-3.7 0-1.7-.2-3.3-.2-5 0-1.9-.5-4.6.3-6.3"/><path fill="#627AB5" d="M811.9 270.5c-.1-.9-1.3-1.1-2-.8-.5.3-.5.8-.3 1.3.6 1.2 2.5.9 2.3-.5z"/><path fill="#FFF9EB" d="M810.7 269.6c.6 0 1.1.3 1.2.9.1.8-.5 1.2-1.1 1.2-.5 0-.9-.2-1.1-.7-.2-.5-.2-1 .3-1.3.2 0 .4-.1.7-.1m0-1c-.4 0-.8.1-1.2.3-1 .5-1.3 1.5-.7 2.6.4.8 1.2 1.3 2 1.3.6 0 1.2-.3 1.6-.7.4-.4.5-1 .4-1.6 0-1.2-.9-1.9-2.1-1.9z"/><path fill="#627AB5" d="M828.4 269.7c-.1-.9-1.3-1.1-2-.8-.5.3-.5.8-.3 1.3.6 1.1 2.5.9 2.3-.5z"/><path fill="#FFF9EB" d="M827.2 268.8c.6 0 1.1.3 1.2.9.1.8-.5 1.2-1.1 1.2-.5 0-.9-.2-1.1-.7-.2-.5-.2-1 .3-1.3.1-.1.4-.1.7-.1m0-1c-.4 0-.8.1-1.2.3-1 .5-1.3 1.5-.7 2.6.4.8 1.2 1.3 2 1.3.6 0 1.2-.3 1.6-.7.4-.4.5-1 .4-1.6-.1-1.2-1-1.9-2.1-1.9z"/><path fill="#CCBA95" d="M820.7 276.8c.5.2 1.9.1 2 .9.2.9-1.5 1.1-2 1.2-1.1.2-3.7.4-4.6-.7-1-1.3 2-1.3 2.6-1.3"/><g fill="#CCBA95"><path d="M820 285.5c-1.9.1-4.9.5-5.9-1.4 1.2 1.7 3.5 1.4 5.5 1.4.5 0 1-.1 1.4-.1"/><path d="M817.9 286.3c-1.7 0-3.5-.3-4.4-1.9-.2-.3-.1-.8.3-1 .3-.2.8-.1 1 .2.8 1.2 2.4 1.1 4.1 1.1h2.3c.4 0 .7.3.7.8 0 .4-.3.7-.7.7H819.6c-.7.1-1.2.1-1.7.1z"/></g><path fill="#826F46" d="M812.9 269.6c.7 0 2 .4 2-.7-.1-.9-1.2-.6-1.8-.5-1.1.1-2.3.3-3.4.3h-1.6c-.3 0-.6 0-.9.2-.3.2-.2.3-.2.6-.1 1.2 1.3.8 2.1.6 1.2-.2 2.5-.5 3.8-.5zM824 269.2h.4c.4 0 .9-.2 1.3-.2.7-.1 1.5 0 2.2-.1.8 0 1.6 0 2.4-.1.2 0 .6.1.7-.2.1-.1 0-.6-.1-.7-.1-.2-.4-.2-.6-.2-.6-.1-1.2 0-1.8.1-.7 0-1.3 0-2-.1h-1.3c-.4 0-.8 0-1.3.1-.2 0-.5 0-.7.1-.2.2-.1 1.1.1 1.3h.7z"/><path fill="#373E4D" d="M803.2 357.1h-.7c-.1 0-.3-.1-.3-.2s.1-.3.2-.3h1.1c1.6-.4 1.6-1.8 1.6-3.3v-.5c0-.1.1-.3.2-.3s.2.1.2.2v.5c0 1.5.1 3.3-2 3.8-.1.1-.2.1-.3.1z"/><path fill="#DEB249" d="M839.8 270.5c-.3 2.2 0 5.6-3.5 4.6-1.1-.3-.3-3-.2-4 .2-2 .3-4.1.8-6.1 1-.3 2.4-.5 2.9.6.7 1.5.2 3.4 0 4.9z"/><defs><path id="k" d="M839.8 270.5c-.3 2.2 0 5.6-3.5 4.6-1.1-.3-.3-3-.2-4 .2-2 .3-4.1.8-6.1 1-.3 2.4-.5 2.9.6.7 1.5.2 3.4 0 4.9z"/></defs><clipPath id="l"><use xlink:href="#k" overflow="visible"/></clipPath><path clip-path="url(#l)" fill="#8A8A8A" d="M837 264.7c1.2.2.7 1.7.6 2.4-.1.5-.1 1-.2 1.5-.1 1.3-.4 2.5-.5 3.8-.1.7 0 1.6-.3 2.3-.1.3-.5.9-.9.8-.5-.2-.2-1.5-.2-1.9.4-2.8 1-5.6 1.1-8.4"/><path fill="#DEB249" d="M800.6 271.9c.1 2.2-.5 5.6 3.1 4.9 1.2-.2.6-2.9.6-3.9-.1-2 .1-4.1-.3-6.1-1-.4-2.3-.7-2.9.3-.9 1.4-.6 3.3-.5 4.8z"/><defs><path id="m" d="M800.6 271.9c.1 2.2-.5 5.6 3.1 4.9 1.2-.2.6-2.9.6-3.9-.1-2 .1-4.1-.3-6.1-1-.4-2.3-.7-2.9.3-.9 1.4-.6 3.3-.5 4.8z"/></defs><clipPath id="n"><use xlink:href="#m" overflow="visible"/></clipPath><path clip-path="url(#n)" fill="#8A8A8A" d="M803.9 266.4c-1.2 0-.8 1.6-.8 2.3v1.5c0 1.3.1 2.5.2 3.8 0 .8-.1 1.6.1 2.3.1.3.5.9.8.8.6-.1.4-1.5.3-1.9-.1-2.8-.5-5.6-.3-8.5"/><path fill="#E8E23C" d="M820.8 263.8c-3.7.9-7.3 1.9-11.1 2.6-3 .5-8 1.5-10.8.4-2.5-1-1.7-3.1.9-2.7.7-5.1.8-5.2 1.4-10.3.3-2.7.7-5.4 1.7-8 4-10.1 16.8-12 25.5-7.2 8.9 4.9 11.2 11.2 11.8 20.8 1.5.2 1.8 1.2 1.1 2.3-1.2 1.9-4.9 1.4-6.8 1.6-4.4.5-9.4-.6-13.7.5z"/><path fill="#E3E3E3" d="M841.7 263.1c0 .3-.1.7-.3 1.1-1.2 1.9-4.9 1.4-6.8 1.6-4.5.5-9.5-.6-13.8.5-3.7.9-7.3 1.9-11.1 2.6-3 .5-8 1.5-10.8.4-1-.4-1.5-1-1.5-1.5v-2.5c0 .5.5 1.1 1.5 1.5 2.9 1.2 7.9.1 10.8-.4 3.7-.6 7.4-1.7 11.1-2.6 4.4-1.1 9.4 0 13.8-.5 1.9-.2 5.6.3 6.8-1.6.2-.4.3-.7.3-1 0 1.9-.1 1.8 0 2.4z"/><defs><path id="o" d="M820.8 263.8c-3.7.9-7.3 1.9-11.1 2.6-3 .5-8 1.5-10.8.4-2.5-1-1.7-3.1.9-2.7.7-5.1.8-5.2 1.4-10.3.3-2.7.7-5.4 1.7-8 4-10.1 16.8-12 25.5-7.2 8.9 4.9 11.2 11.2 11.8 20.8 1.5.2 1.8 1.2 1.1 2.3-1.2 1.9-4.9 1.4-6.8 1.6-4.4.5-9.4-.6-13.7.5z"/></defs><clipPath id="p"><use xlink:href="#o" overflow="visible"/></clipPath><path clip-path="url(#p)" fill="#D4CF37" d="M812.4 247.4c0-.6 0-1.1.1-1.7.3-2.9 1-4.8 1.6-7.6.1-.6.2-1.8.7-2.2.4-.3 1.9-.3 2.5-.4 1.8-.3 4.1-.6 5.9 0-.3 4.8-1.2 6.1-1.1 11.1.1 2.8-.1 3.8-.1 6.6 0 .6.3 2.3-.1 2.8-.5.6-1.4.2-2.1.3-1.5 0-5 1.1-6.4.3-1.1-.6-.8-2.4-.8-3.5 0-2.8.1-.7-.1-3.5 0-.8 0-1.5-.1-2.2z"/><path fill="#D4CF37" d="M803.5 265.2c-.8 0-1.7-.1-2.5-.4-.1 0-.2-.2-.2-.3s.2-.2.3-.2c1.9.7 4 .3 6-.1.3-.1.7-.1 1-.2 1.7-.3 3.3-.7 5-1.1 3.3-.7 6.7-1.5 10.1-1.7 1.1-.1 2.2-.1 3.3-.1 2.1-.1 4.2-.1 6.3-.4.5-.1 1-.1 1.5-.1 1.5-.1 3.3-.2 4.3-1 .1-.1.3-.1.3 0 .1.1.1.3 0 .4-1.2 1-3 1.1-4.6 1.1-.5 0-1 0-1.5.1-2.1.2-4.3.3-6.4.4-1.1 0-2.2.1-3.3.1-3.4.2-6.7.9-10 1.7-1.6.4-3.3.8-5 1.1-.3.1-.6.1-1 .2-1.1.2-2.4.5-3.6.5z"/><path fill="#EBE7E3" d="M826.6 295.9c-.3.6-.6 1.6-1.1 2.1-.7.7-1.7 1.4-2.6 1.7-.7.2-1.4.1-2 .3-.3 2.2-1.4 4.7-1.7 7.1-.1 0-1.2-5.6-1.9-7.3-1.1-.6-3.3-1.6-4-2.2-.4-.3-1.1-.9-1.3-1.5h-.4c.2.4.9 1.3 1.6 1.8.6.5 2.7 1.5 3.8 2.1.4 1.2 1 4.5 2 7.5-.1.4-.5 3.8-.6 4.2.3.1 1.1.1 1.3 0 .7-3.1 1.7-8.6 2.4-11.6 2.7-.4 4.1-2.1 4.8-4.1-.1-.1-.1-.1-.3-.1z"/><path fill="#B3572D" d="M831.6 347.3h-4.1l.5-51.2 3.6.3z"/><path fill="#ccc" d="M827.2 347.1h4.8v1.3h-4.8zM831.3 349.2c0 .1-.1.3-.3.3h-2.8c-.1 0-.3-.1-.3-.3v-1c0-.1.1-.3.3-.3h2.8c.1 0 .3.1.3.3v1z"/><path fill="#EBE7E3" d="M792.8 308.6c-.2-.9-1.2-1.9-1.7-2.6-.9-1-1.2-1.9-2.3-3-.5-.4-.9-.5-1.4-.2-.4.3-.6.6-.6 1.3-.9 0-1.8.6-1.3 1.6.7 1.4 2.7 4.6 4 5.3 1 .6 1.6 1 2.2-.5 1-.4 1.4-.9 1.1-1.9z"/><path fill="#D6D3CF" d="M790.5 309.9c-.1 0-.1 0 0 0-1.1-.8-1.9-1.9-2.6-3-.3-.5-.7-1-1-1.5v-.2h.2c.4.5.7 1 1 1.5.7 1.1 1.4 2.2 2.4 2.9.1.1.1.2 0 .3z"/><path fill="#B38F3B" d="M813 339.4c-.1 0-.2-.1-.3-.1-.2 0-.5.1-.7.3l-.2.2.6.3c.5.2 1-.1 1.3-.4.3-.2.1-.4-.2-.3h-.5z"/><path fill="#DECBA2" d="M817.4 343.4l-4.4-2.3c2.3-4.4 6-6.9 9.5-9.4 4.7-3.2 9.5-6.6 12.2-14.7l4.7 1.6c-3.3 9.7-9 13.7-14.1 17.2-3.3 2.3-6.2 4.2-7.9 7.6z"/><path fill="#434D5E" d="M812.7 349.3c0-.1-.5-.1-.6-.1-.1.3-.2 2.7-.1 2.8.6.2.6 0 .7-.6 0-.5.1-.9.1-1.4-.1-.2-.1-.4-.1-.7z"/><path fill="#4D576B" d="M804.5 349.5c0-.1-.5 0-.6-.1 0 .3-.2 2.7-.1 2.8.6.2.6 0 .7-.6 0-.5.1-.9.1-1.4-.1-.2-.1-.4-.1-.7z"/><path fill="#EBE7E3" d="M840.9 316.7c-.7-.6-2.1-.9-3-1-1.3-.3-2.1-.8-3.6-1-.6-.1-1 .1-1.3.7-.2.5-.1.9.3 1.4-.7.5-1.1 1.5-.1 2.1 1.3.7 4.9 2 6.4 1.9 1.2-.1 1.9-.2 1.5-1.7.6-1.1.6-1.7-.2-2.4z"/><path fill="#D6D3CF" d="M839.7 319.2c-1.3 0-2.6-.5-3.8-.9-.6-.2-1.1-.4-1.7-.6-.1 0-.1-.1-.1-.2s.1-.1.2-.1c.6.2 1.1.4 1.7.6 1.2.4 2.5.9 3.7.9.1 0 .1.1.1.1 0 .1 0 .2-.1.2z"/><path fill="#888E99" d="M833.4 420.3c-1.3-.4-2.8-.2-4.1-.2-1.9.1-2.8-.2-5 .1-.9.1-1.4.4-1.5 1.1-.1.5 0 .9.5 1.3-.5.6-.7 1.8 1 2 2.2.3 6.9.4 9 0 1.7-.3 2.1-.8 1.3-2.1.3-1.3.2-1.8-1.2-2.2z"/><path fill="#4D576B" d="M829.8 422.8c-.6 0-1.3 0-1.9-.1-.8 0-1.6-.1-2.5-.1-.1 0-.1-.1-.1-.1 0-.1.1-.1.1-.1.9 0 1.7 0 2.5.1 1.6.1 3 .1 4.7-.2.1 0 .1 0 .1.1s0 .1-.1.1c-1 .2-1.9.3-2.8.3z"/><path fill="#888E99" d="M814.2 420.3c-1.3-.4-2.8-.2-4.1-.2-1.9.1-2.8-.2-5 .1-.9.1-1.4.4-1.5 1.1-.1.5 0 .9.5 1.3-.5.6-.7 1.8 1 2 2.2.3 6.9.4 9 0 1.7-.3 2.1-.8 1.3-2.1.4-1.3.3-1.8-1.2-2.2z"/><path fill="#B3572D" d="M808.2 347.9h-4.1v-51l4.1-.5z"/><path fill="#ccc" d="M803.8 347.7h4.8v1.3h-4.8zM807.9 349.8c0 .1-.1.3-.3.3h-2.8c-.1 0-.3-.1-.3-.3v-1c0-.1.1-.3.3-.3h2.8c.1 0 .3.1.3.3v1z"/><path fill="#4D576B" d="M810.7 422.8c-.6 0-1.3 0-1.9-.1-.8 0-1.6-.1-2.5-.1-.1 0-.1-.1-.1-.1 0-.1.1-.1.1-.1.9 0 1.7 0 2.5.1 1.6.1 3 .1 4.7-.2.1 0 .1 0 .1.1s0 .1-.1.1c-1 .2-1.9.3-2.8.3z"/><path fill="#C3C9C9" d="M773 344.6c-1.3.1-11.6.7-14.2.8-2.8.1-5.6.5-8.4.7-1.3.1-5.4.5-6.1.6-1.5.2-7.9 1.2-9.5 1.4-1 .1-2.5.6-3 1.6-.3.5-.5 1.6-.2 2.1 1 1.5 4.6 1.6 8 1.5 8.9-.3 16.7-.4 34.1-1.6.8 0-.7-7.1-.7-7.1z"/><path fill="#4D4D4D" d="M744.4 346.8c.7-.1 4.8-.5 6.1-.6 2.8-.3 5.6-.6 8.4-.7 2.6-.1 12.9-.7 14.2-.8 0 0 1.4 7 .8 7.1-17.4 1.2-25.3 1.4-34.1 1.6-3.3.1-7 0-8-1.5-.3-.5-.1-1.6.2-2.1.5-.9 2-1.5 3-1.6 1.5-.2 7.8-1.3 9.4-1.4m-.1-.8c-.8.1-3 .4-5 .8-1.8.3-3.7.6-4.5.7-1 .1-2.8.7-3.6 1.9-.4.7-.7 2.1-.2 2.9 1.2 1.8 4.8 1.9 8.6 1.8.9 0 1.7-.1 2.6-.1 7.8-.2 15.9-.5 31.6-1.6.2 0 .5-.2.6-.4.3-.3.4-.9-.1-4.3-.3-1.7-.6-3.3-.6-3.3l-.1-.7-.7.1c-1.3.1-11.5.7-14.2.8-2.2.1-4.5.3-6.7.5-.6.1-1.2.1-1.8.2-1.1.2-5.2.6-5.9.7z"/><path fill="#DF6C39" d="M821.6 343.8c-1.5-1.2-3.7-1.8-5.5-2.4-1.1-.3-2.2-.8-3.2-1.3-.7-.3-1.4-.6-2.2-.8-1.4-.4-2.9-.3-4.3-.4-1.5-.1-2.8-.7-4.3-.7-.1-1.5-.5-2.8-.8-4.2-.4-1.5-1.5-3.1-3.1-3.3-2.3-.2-4.5.5-6.7.8-2.7.4-5.4 1-8.1 1.8-1.1.3-2.2.7-3.4.9-.7.1-1.6 0-2.3.5-.6.4-1.1.7-1.5 1.3-.5.6-.9 1.4-1.4 2-1 1.2-1.9 2.8-2.1 4.4-.2 1.4-.2 2.7 0 4.1.3 2.1.3 4.4.7 6.6.1.7.1 2.1.7 2.5.6.5 1.8.2 2.5.5 1.4.5.7 2.3 2.1 2.7 1 .3 2.5-.2 3.5-.3 1.3-.1 2.5-.3 3.7-.6 3.2-.8 6.4-1.6 9.7-1.9 1.8-.1 3.6-.1 5.4-.5.7-.1 1.6-.3 2.3-.5.6-.2.9-.8 1.4-1 .4-.2 1.3-.1 1.8-.2 2.1-.2 4.2-.6 6.3-.9 1.8-.2 3.6-.3 5.4-.6 1.2-.2 2.4-.3 3.4-.9.9-.5 1.5-1.3 1.5-2.4 0-2.2.1-4-1.5-5.2zm-.9 6c-.5.4-1.9 0-2.5 0-1.1.1-2.2.2-3.4.3-2 .1-4 .3-6 .4-1.2.1-2.9.3-3.9-.5-.8-.7-1.1-2-1.3-2.9-.7-2.5 1.3-3.1 3.3-3.1 1.1 0 2 0 3-.1 1.1-.2 1.9.2 2.9.5 1.3.4 2.6.4 3.9.6.6.1 1.2.2 1.7.3 1 .2 2 .7 2.4 1.8.2.5.5 2.3-.1 2.7z"/><path fill="#1E1A1B" d="M788.9 331.9c-.7-1.1-1.6-2.4-2.4-3.1-1.2-1.1-2.9-2.4-4.7-2.4-.9 0-2.1.2-2.6 1-.5 1-.2 2.1-.2 3.1 0 1.3.1 2.4.1 3.7-.4 0-1-.2-1.1-.3-.4-.2-.6-.5-.9-.9-.8-.9-1.4-1.7-1.8-2.9-.4-1.1-.7-1.9-.6-3.2 0-.5.1-1.1.3-1.6.1-.5.8-1.6.6-2.1-.2-.3-.5-.4-.9-.4-.7 0-1.6 0-2.3.3-.9.3-1.3 1.6-1.5 2.4-.2 1.2-.5 2.4-.4 3.6.1.9.3 2 .6 2.9.8 2.4 1.9 4.5 3.2 6.3 1.6 2.1 3.4 3.7 5.5 4.4.1 1 .7 7.2.6 9.2-.1 1.7-.4 3.4-1.5 4.8-.2.3-.6.5-.8.9-.1.1-.1.2-.1.4s0 .5.1.7c.1.5.4.3.8.3.8 0 1.6-.1 2.2-.6.1-.1.2-.2.3-.4 2.2-3.4 2.3-5 2.4-7.9 0-.6-.3-5.9-.5-6.8 1.6-.2 2.2-.3 2.3-.8.1-.4 0-1-.1-1.4-.4-1-1.6-.8-2.4-.7 0-.5-.3-4.1-.6-7.1-.1-1.7-.3-3.1-.3-3.7.5 0 1 .5 1.3.8.5.5 1 1.2 1.4 1.8.1.1.1.2.2.3.9.1 2.6-.3 3.8-.6zm-9.2 8.3c-.5-.4-1-.8-1.4-1.3-.7-.7-1.9-1.8-1.6-3v-.1c.1-.4.4-.7.7-.9.1-.1.3-.2.5-.3.2-.1 1-.2 1.4-.2 0 .3.4 4.6.4 5.8z"/><path fill="#DEB249" d="M810.6 340.9s-1.3 1.5-1.3 1.6c-.3.3-.6.9-.6 1.4 0 .8 1.8 1.2 2.3.5 0 .6 1.6 1.1 2.3.4.1.5 1.4 1 2.2.4.2.9 2 1.2 2.7 0 .3-.5 1.5-1.5 1.5-2 0-.4-.4-.7-.3-1.2 0-.3.3-.7.5-.9.2-.1.8-.1.8-.3 0-.2-.4-.3-.5-.4-.3-.2-2.8-1.7-3.9-2.3-.5-.2-1.4-.8-1.9-.8-.4 0-.1.4-.2.7 0 .3-.5 1.1-.7 1.3-.3.3-.6.4-1 .4-.9.1-1.4.6-1.9 1.2zM784.5 326.9c0 .4 0 1.1-.1 1.4-.1.8-.5 2.1-2 2.5 0-.3-.1-.7-.1-.9.3-.5.4-.6.5-1.1.2-.8.1-1.5-.6-2.1-.4-.3-1-.3-1.6-.2-1.4.4-1.5 1.3-1.6 2.2 0 .3 0 .7.1 1.1 0 .1-.1.1-.2.1-.4-.2-.7-.7-.7-1.1 0-.6 0-1.6.4-2.1.8-1.3 1.5-1.6 2-1.8.2-.5.5-1.1.6-1.6.1-.6-.2-.5-.4-.9-.3-.9 1.6.1 1.8.2 1.3.7 2.5 1.6 3.7 2.4.1.1.8.4.7.7-.1.2-.7 0-.9 0-.7.1-1.3.6-1.6 1.2z"/><path fill="#B38F3B" d="M812.3 342.8c-.1 0-.1-.1-.1-.2.2-.4.5-.8 1-1.2h.2v.2c-.4.3-.7.7-.9 1.1-.1.1-.2.1-.2.1zM814.4 343.1c-.1-.1-.1-.2-.1-.2.1-.1.1-.2.2-.3.1-.2.3-.5.6-.7.1 0 .1 0 .2.1 0 .1 0 .1-.1.2-.2.1-.3.3-.5.5 0 .1-.1.2-.3.4.1 0 .1 0 0 0zM816.1 344.1c-.1 0-.1 0 0 0-.1 0-.1-.1-.1-.1.1-.5.4-1.1.7-1.5 0-.1.1-.1.2 0 .1 0 .1.1 0 .2-.3.4-.6.9-.7 1.4h-.1zM818.3 342c-.9-.7-2-1.1-3-1.4-.3-.1-.7-.2-1.1-.3-.1 0-.1-.1-.1-.2s.1-.1.2-.1c.3.1.7.2 1 .3 1.1.3 2.1.7 3 1.4.1.1.2.2 0 .3.1 0 0 0 0 0zM783.6 326.3c-.1 0-.1-.1 0 0-.2-.1-.3-.2-.4-.3-.5-.5-1.1-1-1.7-1-.1 0-.1-.1-.1-.1 0-.1.1-.1.1-.1.7 0 1.3.6 1.8 1.1l.3.3c.1-.1.1 0 0 .1 0-.1 0 0 0 0z"/><path fill="#CCBB95" d="M786 317.6c-.8-.3-2.2-.6-2.9-.1h-.2v-.2c.8-.5 2.3-.2 3.1.1.1 0 .1.1.1.2h-.1z"/><path fill="#434D5E" d="M826.9 348.7c0-.1-.5-.1-.6-.1 0 .3-.2 2.7-.1 2.8.6.2.6 0 .7-.6 0-.5.1-.9.1-1.4 0-.2 0-.4-.1-.7zM835 348.6c0-.1-.5 0-.6 0 0 .2 0 2.5.1 2.5.6.1.6 0 .6-.6v-1.3c0-.2 0-.4-.1-.6z"/><path fill="#373E4D" d="M835 355.8h-.4c-.4 0-.7 0-1.1-.2-1.1-.4-1.5-1.3-1.7-2.3-.1-.4-.1-.8 0-1.1v-.6c0-.1.1-.2.2-.2s.2.1.2.2v1.6c.2 1 .5 1.7 1.4 2 .4.1.7.1 1 .1h.4c.1 0 .2.1.2.3.1.1-.1.2-.2.2zM819.2 360.2c-.3 0-.6-.1-.9-.3-1-.8-1-2.5-1-4.1 0-.8 0-1.6-.1-2.1 0-.1 0-.3.2-.3.1 0 .3 0 .3.2.2.6.2 1.4.2 2.2 0 1.4 0 3 .8 3.7.3.2.6.2 1 .2.1 0 .3.1.3.2s-.1.3-.2.3c-.3-.1-.4 0-.6 0z"/></g><g><path fill="#4C2B0F" d="M158.3 436.9s-56.1 25-56.1 54.8c0 50.5 57.8 61.3 131.6 61.3 18.3 0 88.2 4.7 88.2-9.7 0-9.4 2.2-64.7-38.6-66-38.3-1.3-56 19.4-57 48.2-.4 11.5-17.7 7.8-34 6.5-16.3-1.3-68.6-3.2-68.6-39.7 0-21 59.7-51.6 59.7-51.6l-25.2-3.8z"/><path fill="#2D1809" d="M157.9 436.8l28.6 1s-2.8 5.2-13 5.3c-10.2.2-15.6-6.3-15.6-6.3z"/><defs><path id="q" d="M158.1 436.8s-56.1 25-56.1 54.8c0 50.5 57.8 61.3 131.6 61.3 18.3 0 88.2 4.7 88.2-9.7 0-9.4 2.2-64.7-38.6-66-38.3-1.3-56 19.4-57 48.2-.4 11.5-17.7 7.8-34 6.5s-68.6-3.2-68.6-39.7c0-21 59.7-51.6 59.7-51.6l-25.2-3.8z"/></defs><clipPath id="r"><use xlink:href="#q" overflow="visible"/></clipPath><path clip-path="url(#r)" fill="#663D1F" d="M323.6 543.8c0-8.2-41.3-10.7-52.8-10.7-59.8 0-26.6 17.2-71.8 17.2-18.9 0-23.1 1.1-59.5-4.3.8.3 106.6 20 116.3 20.2s67.8-3.1 67.8-22.4z"/><path fill="#B8681A" d="M280.9 506s8 1.8 11 3.7c3 1.9 5.7 3.6 8.4 7.9 3.4 5.5.7 29.2.7 29.2l-63-1.3s-1.4-6.9 5.1-7.9 27.7 0 28.3 0c.6 0-4.8-3.7-7.1-6.9s-5.2-8.9-6-11.5c-.7-2.3-2.4-9.1 6.1-12.2 8.4-3.1 16.5-1 16.5-1z"/><path fill="#C68965" d="M280.3 526.9c3.4-.9 9.7 1.8 12.5 4.9 2.8 3.1 6.1 14.9 6.1 14.9l-37.7-.8s-1.5-3.1 2.1-3.4c3.6-.3 13.5-.4 13.5-.4s-3.9-8.1-2.7-10.5c1.4-2.8 2.8-3.8 6.2-4.7zM268.2 528.8l-7.4 8.4h4.7l4.4-7.2z"/><path fill="#602200" d="M252.2 509.2c-.2 12.4 4.3 14.6 6 15.6 1.9 1.1 7 3.9 12.5.1s5.9-12.4 6.1-16.9c.2-4.5-6.5-6.5-6.5-6.5l-11.4.1c.1.1-6.6 1.9-6.7 7.6z"/><path fill="#B8681A" d="M260.1 506.1s.1-.7-.4-2.2c-.4-1.5-1.4-3.4-3.6-6.3-2.2-3-3.2-1.6-4.4 3.6-1.1 5.2.8 6.4 1 6.4 0 0-.8 5.4 1.1 9.5 1.9 4.1 6.4 8.5 10.8 7.8 4.4-.7 9.2-2 10.3-8.3 1.1-6.3 2-8.7 2-8.7s1.8-1 2.4-4.3c.6-3.3.7-4.2 0-6-.7-1.8-1.4-1.9-3.3-.6-2 1.3-4.7 3.9-5.3 5.5-.6 1.6-.8 3.7-.8 3.7"/><path stroke="#443200" stroke-miterlimit="10" d="M255.6 506.3c0-.2-.7-1.8-.5-3.1.2-1.3.7-1.5.9-.3.2 1.2.4 3.4.4 3.4M272.9 505.7s1-2.6 1.7-3.2c.8-.6 1.5-.5.8.4-.6.9-1.7 3.4-1.7 3.4" fill="none"/><path fill="#DEBDAA" d="M269 521.8l-.5-1v-4.2l5.8 5.2s-2.9 6.2-9.4 5.6c-6.5-.6-11.1-5.6-11.1-5.6l2.2-2 3.5-3.2"/><path fill="#C68965" d="M256.4 512.2c.3.2 3.3 4.4 3.3 4.4l.6 5.5h8.3v-5.5l3.4-4.4"/><path fill="#EBEEE8" d="M264.9 524.8c-1.8.1-4.2-1-4.6-1.9-.4-.8-.2-2.7 1.3-2.2s1.3 1.3 1.9 2c.7.9 1.5 1 2.4.8.9-.2.5-2.9 1.9-2.9 1.5 0 1.6 1.2 1.6 2.1 0 2.2-4.5 2.1-4.5 2.1z"/><path fill="#15131D" d="M264.5 520.4c1.5-.1 2.3.6 2.4 1.9.1 1.3-.9 1.3-2.2 1.5-1.2.1-1.9-.5-2-1.7-.1-1.2 1.8-1.7 1.8-1.7z"/><path fill="#A0979E" d="M261.8 524.1s.3 1.5 2.4 1.5 1.6.2 2.4 0c.8-.2 1.5-1.5 1.5-1.5s-2.4.7-3.2.7c-.7 0-3.1-.7-3.1-.7z"/><path stroke="#443200" stroke-miterlimit="10" fill="none" d="M257.7 511h4.1M267.3 511h3.5"/><path fill="#15131D" d="M259 511c.1 0-.1.8.7.9.8.1 1.1-.9 1.1-.9H259zM268.1 511c.1 0-.1.8.7.9.8.1 1.1-.9 1.1-.9h-1.8z"/></g><g><path fill="#654D00" d="M111.8 437.2c1.1-5 2-5.2-1.5-8.3-3.5-3.1-6.6-5.8-8.1-7.2-1.4-1.4-1.7 3-2.1 5.4-.4 2.4-1.2 3.9.7 5.4 1.8 1.5 10.8 6 11 4.7z"/><path fill="#443200" d="M95.8 436.4c1.7.1 16.7 2 16 .8-.7-1.2-10.8-6.8-12.1-6.4-1.3.4-3.9 5.6-3.9 5.6z"/><path fill="#8E6500" d="M101.6 421.4c-2 .9-7.8 8.4-8.2 10.1-.4 1.8-.3 1.3.7 2.9 1 1.6 1.1 1.9 1.8 1.9.6 0 3.7-4.1 4.3-5.6.6-1.3 2.4-9.8 1.4-9.3z"/><path fill="#654D00" d="M198.3 442.6c-1-3.2-2.1-3.3 1.9-5.4 4-2.1 7.6-3.9 9.2-4.9 1.6-1 1.8 1.9 2.2 3.4.4 1.5 1.2 2.5-.9 3.5-1.9 1-12.1 4.3-12.4 3.4z"/><path fill="#443200" d="M216.3 441.6c-1.9.1-18.7 1.8-17.9 1 .8-.8 12.3-4.7 13.8-4.5 1.4.2 4.1 3.5 4.1 3.5z"/><path fill="#8E6500" d="M210.4 432.1c2.2.5 8.5 5.2 8.8 6.3.4 1.1.3.8-.9 1.9-1.2 1.1-1.3 1.3-2.1 1.3-.7.1-4-2.6-4.7-3.5-.5-.9-2.4-6.3-1.1-6z"/><path fill="#654D00" d="M225.3 440.6c-2.1-.6-2.9-.6-2.5-2.3.5-1.7 1.2-1.5 1.2-1.5s1 2.6 2.2 2.8c1.2.2 1.7.5 1.7.5s-1 .9-2.6.5z"/><path fill="#8E6500" d="M224 436.7c1.9-.5 2.1-.7 4 0 1.8.7 2.2 2.6 0 3.3-2.2.6-2.6-.6-3.3-1.1-.7-.6-.7-2.2-.7-2.2z"/><path fill="#654D00" d="M922.5 426.2c-3.9-1.1-5.5-1.1-4.6-4.3.9-3.2 2.2-2.8 2.2-2.8s1.9 4.7 4.1 5.2c2.2.4 3.2.9 3.2.9s-2 1.8-4.9 1z"/><path fill="#8E6500" d="M920 419.1c3.6-.9 4-1.4 7.4 0 3.4 1.4 4.1 4.9 0 6.1-4.1 1.2-4.8-1.1-6.1-2.1-1.4-1.1-1.3-4-1.3-4z"/><path fill="#654D00" d="M876.4 427.5c.9-4.2 1.7-4.4-1.3-7-2.9-2.6-5.6-4.9-6.8-6.1-1.2-1.2-1.5 2.5-1.8 4.6-.4 2-1 3.3.6 4.5 1.5 1.2 9.1 5.1 9.3 4z"/><path fill="#443200" d="M862.9 426.8c1.4.1 14.1 1.7 13.5.7-.6-1-9.1-5.7-10.2-5.4-1.2.3-3.3 4.7-3.3 4.7z"/><path fill="#8E6500" d="M867.7 414.2c-1.7.8-6.6 7.1-6.9 8.6-.3 1.5-.3 1.1.6 2.5.9 1.4 1 1.6 1.5 1.6s3.1-3.5 3.7-4.7c.5-1.3 2.1-8.5 1.1-8z"/></g></g></svg>