<svg xmlns="http://www.w3.org/2000/svg" width="3000" height="600" viewBox="0 0 3000 600"><defs><filter id="a"><feGaussianBlur stdDeviation="4" in="SourceAlpha"/><feOffset result="offsetblur"/><feFlood flood-color="#727272"/><feComposite operator="in" in2="offsetblur"/><feMerge><feMergeNode/><feMergeNode in="SourceGraphic"/></feMerge></filter></defs><g filter="url(#a)"><g><linearGradient id="b" gradientUnits="userSpaceOnUse" x1="910.609" y1="386.478" x2="910.609" y2="480.362"><stop offset="0" stop-color="#808080"/><stop offset="1" stop-color="#333"/></linearGradient><path fill="url(#b)" d="M988 386.5l-154.8 93.9 154.8-8z"/></g><g><path fill="#604F3F" d="M988 423.3c2 .4 190.8 16.7 266.8 12.8 75.9-3.8 400.6-20.5 497.2-16.1 96.7 4.4 260 3.3 260 3.3v178.4H988V423.3z"/><path fill="#604F3F" d="M2012 423.3c2 .4 190.8 16.7 266.8 12.8 75.9-3.8 400.6-20.5 497.2-16.1 96.7 4.4 260 3.3 260 3.3v178.4H2012V423.3z"/><path fill="#604F3F" d="M-36 423.3c2 .4 190.8 16.7 266.8 12.8 75.9-3.8 400.6-20.5 497.2-16.1 96.7 4.4 260 3.3 260 3.3v178.4H-36V423.3z"/></g></g></svg>