<?xml version="1.0" encoding="utf-8"?>
<!DOCTYPE svg PUBLIC "-//W3C//DTD SVG 1.1//EN" "http://www.w3.org/Graphics/SVG/1.1/DTD/svg11.dtd">
<svg version="1.1" xmlns="http://www.w3.org/2000/svg" xmlns:xlink="http://www.w3.org/1999/xlink" x="0px" y="0px" width="1024px"
	 height="600px" viewBox="0 0 1024 600" enable-background="new 0 0 1024 600" xml:space="preserve">
         <defs>
  <filter id="drop-shadow">
    <feGaussianBlur stdDeviation="4" in="SourceAlpha"/>
    <feOffset dx="0" dy="0" result="offsetblur"/>
    <feFlood flood-color="#727272"/>
    <feComposite operator="in" in2="offsetblur"/>
    <feMerge>
      <feMergeNode/>
      <feMergeNode in="SourceGraphic"/>
    </feMerge>
  </filter>
</defs>
<g filter="url(#drop-shadow)">
<g id="Mountains">
	<g id="right-mountain">
		<linearGradient id="SVGID_1_" gradientUnits="userSpaceOnUse" x1="493.9997" y1="326.8584" x2="493.9997" y2="524.1514">
			<stop  offset="0" style="stop-color:#808080"/>
			<stop  offset="1" style="stop-color:#333333"/>
		</linearGradient>
		<polyline fill="url(#SVGID_1_)" points="730.8,499.1 463.8,326.9 257.2,524.2 		"/>
	</g>
	<g id="left-mountain">
		<linearGradient id="SVGID_2_" gradientUnits="userSpaceOnUse" x1="94.593" y1="334" x2="94.593" y2="480.3623">
			<stop  offset="0" style="stop-color:#808080"/>
			<stop  offset="1" style="stop-color:#333333"/>
		</linearGradient>
		<polyline fill="url(#SVGID_2_)" points="344,454.6 86.5,334 -154.8,480.4 		"/>
	</g>
	<g id="middle-mountain">
		<linearGradient id="SVGID_3_" gradientUnits="userSpaceOnUse" x1="292.8107" y1="314.0508" x2="292.8107" y2="460.4131">
			<stop  offset="0" style="stop-color:#808080"/>
			<stop  offset="1" style="stop-color:#333333"/>
		</linearGradient>
		<polyline fill="url(#SVGID_3_)" points="480.3,434.6 286.7,314.1 105.3,460.4 		"/>
	</g>
	<g id="middle-snow">
		<defs>
			<polyline id="SVGID_4_" points="480.3,434.6 286.7,314.1 105.3,460.4 			"/>
		</defs>
		<clipPath id="SVGID_5_">
			<use xlink:href="#SVGID_4_"  overflow="visible"/>
		</clipPath>
		<g clip-path="url(#SVGID_5_)">
			<path fill="#E8E8E8" d="M241.3,344.4c-1.9,2-1.3,4.3,1.3,5.2l7,2.3c2.6,0.9,6.7,0.4,9-1l7.4-4.4c2.4-1.4,6-1.1,8.2,0.6l3.8,3.1
				c2.1,1.8,5.7,1.9,7.9,0.2l4.9-3.6c2.2-1.6,6-1.8,8.4-0.5l7.8,4.5c2.4,1.4,6,0.9,8-0.9l2.8-2.6c2-1.9,5.5-2.1,7.7-0.6l5.3,3.7
				c2.2,1.6,5.8,1.4,7.9-0.4l3.4-3c2.1-1.8,2.1-4.8,0.1-6.6l-48.6-43.8c-2-1.8-5.3-1.7-7.2,0.3L241.3,344.4z"/>
		</g>
	</g>
	<g id="right-snow">
		<defs>
			<polyline id="SVGID_6_" points="730.8,499.1 463.8,326.9 257.2,524.2 			"/>
		</defs>
		<clipPath id="SVGID_7_">
			<use xlink:href="#SVGID_6_"  overflow="visible"/>
		</clipPath>
		<g clip-path="url(#SVGID_7_)">
			<path fill="#E8E8E8" d="M419.1,346.8c-1.6,2.2-0.9,4.9,1.6,6l3.5,1.5c2.5,1.1,6.4,0.6,8.5-1.1l4.4-3.4c2.2-1.7,5.5-1.4,7.4,0.6
				l2,2.2c1.9,2,5,2.1,7,0.2l2.7-2.6c2-1.9,5.4-2.1,7.6-0.4l4.7,3.5c2.2,1.7,5.4,1.3,7.1-0.9l1.4-1.7c1.7-2.1,4.8-2.4,6.8-0.5l3,2.7
				c2,1.9,5.2,1.7,7-0.4l1.8-2c1.8-2.1,1.9-5.5,0.1-7.5l-36.5-42.9c-1.8-2.1-4.6-2-6.2,0.2L419.1,346.8z"/>
		</g>
	</g>
	<g id="left-snow">
		<defs>
			<polyline id="SVGID_8_" points="344,454.6 86.5,334 -154.8,480.4 			"/>
		</defs>
		<clipPath id="SVGID_9_">
			<use xlink:href="#SVGID_8_"  overflow="visible"/>
		</clipPath>
		<g clip-path="url(#SVGID_9_)">
			<path fill="#E8E8E8" d="M32.5,358.6c-1.8,2.1-1.2,4.5,1.4,5.5l8.8,3.2c2.6,0.9,6.6,0.5,8.9-1l9.2-6c2.3-1.5,5.9-1.2,7.9,0.6
				l5.2,4.7c2,1.8,5.5,1.9,7.6,0.2l6.5-5.2c2.2-1.7,5.8-1.9,8.1-0.5l9.7,6.1c2.3,1.5,5.8,1,7.7-0.9l4.1-4.2c1.9-2,5.3-2.2,7.4-0.6
				l6.9,5.3c2.2,1.7,5.6,1.5,7.6-0.4l4.8-4.5c2-1.9,2-5,0.1-6.9L90,300.5c-2-1.9-5-1.8-6.9,0.3L32.5,358.6z"/>
		</g>
	</g>
</g>
<g id="Trees_and_stuff">
	<g>
		<path fill="#2E732E" d="M196.5,143.8c0,0-0.1,0-0.1,0c0-0.1,0.1-0.1,0.1-0.2V143.8z M196.5,143.5c40.7-63.5,5.3-119-34.5-124.7
			c-48.6-7-76.7,21.1-64.7,67.6c-63.3,19.8-49.1,105.5-29.1,114c-24.9,14.6-28.5,84,15.7,96.7c10.4,3,43.8,2.4,51.6-21.9
			c1.1,3.5,4.8,6.8,4.8,6.8s25.1,9.9,44.6-8c13.7-12.5,28.2-36.7,12.7-67.7C218,193.5,214,149.2,196.5,143.5z"/>
		<path fill="#654D00" d="M142.7,438.4c0,0-10-31-11.5-90.4c-1.5-59.4,5.7-62.8,5.7-62.8s6.1-1.5,13.4-21.4
			c7.3-19.9,9.2-30.3,9.2-30.3s-7.1,19.9-14.3,29.9c-7.2,10-7.9,8-7.9,8s3.4-55.9,4.2-79.7c0.8-23.7,3.2-69.3,3.7-70.5
			c0.5-1.1,21.6-28,21.6-28l-3.4-1.9l-18.8,18.8l0.8-42.5l-3.8,8.8l-6.5,109.9c0,0-10-9.2-16.9-26.4c-6.9-17.2-14.6-32.6-14.6-32.6
			v1.9c0,0,2.3,13,8.8,29.5c6.5,16.5,22.8,42.9,22.8,42.9s-9.4,82.7-12.1,114.9c-2.7,32.2-2.3,43.3-2.3,43.3L101,276l2.3-33.7
			l-0.4-5.4l-6.1,35.2l-5.4-3.1c0,0,1.8,2,3.4,9.2c2.7,11.9,16.5,71.2,21.8,96.1c5.4,24.9,2.3,64.1,2.3,64.1s1.3-0.3,11-0.1
			C138.8,438.6,142.7,438.4,142.7,438.4z"/>
		<g>
			<path fill="#1F9921" d="M91.2,271.1c0,0-6,0.1-8.9-6.4c-2.8-6.5-2.1-6-2.1-6s8.1-0.6,11,5.8c2.9,6.4,2.8,7.1,2.8,7.1L91.2,271.1z
				"/>
			<path fill="#1F9921" d="M143,155.4c0,0,0.7-4.3,5.7-5.6c5-1.2,4.6-0.7,4.6-0.7s-0.6,5.9-5.6,7.2c-5,1.3-5.4,1.1-5.4,1.1
				L143,155.4z"/>
			<path fill="#1F9921" d="M144.1,75.3c0,0,0.7-4.3,5.7-5.6c5-1.2,4.6-0.7,4.6-0.7s-0.6,5.9-5.6,7.2c-5,1.3-5.4,1.1-5.4,1.1
				L144.1,75.3z"/>
			<path fill="#1F9921" d="M143.2,155.9c0,0,3.9-2,7.9,1.3c4,3.3,3.3,3.2,3.3,3.2s-5.1,3-9.1-0.2c-4-3.2-4.2-3.7-4.2-3.7
				L143.2,155.9z"/>
			<path fill="#1F9921" d="M102.7,238.8c0,0-1.1-5.9,4.9-9.8c6-3.8,5.6-3,5.6-3s1.9,7.9-4,11.8c-5.8,3.9-6.5,3.9-6.5,3.9
				L102.7,238.8z"/>
			<path fill="#1F9921" d="M101.1,240.6c0,0-4-0.7-5-5.4c-1-4.7-0.5-4.2-0.5-4.2s5.4,0.7,6.5,5.3c1.1,4.6,0.9,5.1,0.9,5.1
				L101.1,240.6z"/>
			<path fill="#1F9921" d="M158.7,236.1c0,0-1.7-3-0.9-6.3c0.9-3.3,4.5-7.4,4.5-7.4s3.4,5.1,2.6,8.7
				C164.1,234.7,158.7,236.1,158.7,236.1z"/>
			<path fill="#1F9921" d="M93,271.4c0,0-1.7-1.9-1.6-4.4c0.1-2.5,2.1-6,2.1-6s3.2,3.1,3.2,5.8C96.7,269.6,93,271.4,93,271.4z"/>
			<path fill="#1F9921" d="M155.7,247.4c0,0,0.2-1.7,1.6-2.8c1.3-1.1,4.1-1.6,4.1-1.6s-0.2,3.1-1.6,4.3
				C158.3,248.5,155.7,247.4,155.7,247.4z"/>
			<path fill="#1F9921" d="M155.4,247.2c0,0,1.6-0.8,3.2-0.2c1.6,0.5,3.6,2.5,3.6,2.5s-2.7,1.6-4.5,1
				C156,250,155.4,247.2,155.4,247.2z"/>
			<path fill="#1F9921" d="M106.1,133.1c0,0-3.3,0.2-5.8-1.8c-2.5-2.1-4.5-6.8-4.5-6.8s5.7-0.9,8.5,1.3
				C107,127.9,106.1,133.1,106.1,133.1z"/>
			<path fill="#1F9921" d="M164.2,95.4c0,0,0.2-3.3,2.7-5.5c2.4-2.2,7.4-3.4,7.4-3.4s0,5.8-2.5,8.2
				C169.2,97.1,164.2,95.4,164.2,95.4z"/>
			<path fill="#1F9921" d="M162.7,95.2c0,0-3.9-2.6-1-6.7c2.9-4.1,5.6-4.2,5.6-4.2s0.9,2.7,0.7,5.5
				C167.7,95.1,162.7,95.2,162.7,95.2z"/>
			<path fill="#1F9921" d="M105.8,133.6c0,0-2-2.6-1.7-5.8c0.3-3.2,3.2-7.6,3.2-7.6s3.9,4.3,3.6,7.8
				C110.7,131.5,105.8,133.6,105.8,133.6z"/>
			<path fill="#1F9921" d="M116,165.4c0,0-2.3,1.2-4.8,0.6c-2.5-0.7-5.5-3.6-5.5-3.6s3.9-2.5,6.6-1.8
				C114.9,161.3,116,165.4,116,165.4z"/>
			<path fill="#1F9921" d="M143.6,75.8c0,0-4.9-1-5.3-7.1c-0.4-6,2.8-11.8,2.8-11.8s4.3,4.5,5.5,9.4
				C147.9,71.3,143.6,75.8,143.6,75.8z"/>
			<path fill="#1F9921" d="M142.3,76.6c0,0-2.4,1.3-4.8-1.1c-2.4-2.4-3.1-6.1-3.1-6.1s3.5,0.4,5.8,2
				C142.4,73.1,142.3,76.6,142.3,76.6z"/>
			<path fill="#1F9921" d="M161.7,94.5c0,0-2.2,0.7-2.6-3.2c-0.4-3.9,0.5-5.5,0.5-5.5s1.2,1,2.1,2.7
				C163.3,91.6,161.7,94.5,161.7,94.5z"/>
		</g>
	</g>
</g>
<g id="ground_1_">
	<g id="ground">
		<path fill="#604F3F" d="M0,423.3c2,0.4,190.8,16.7,266.8,12.8c75.9-3.8,400.6-20.5,497.2-16.1c96.7,4.4,260,3.3,260,3.3v178.4H0
			V423.3z"/>
	</g>
	<g>
		<g>
			<path fill="#73571E" d="M826.7,417.3c-1.2,0.4-0.4,2.7-0.2,3.6c0.3,1.4,0.7,2.9,1.4,4.2c0.8,1.4,0.2,3.9,2.5,3.9
				c0.6,0,2-0.2,2.3-0.9c0.3-0.5-0.3-1.4-0.5-1.9c-0.5-1.6-0.5-3.1-0.3-4.7c0.2-1.2,0-3.3-1.2-4
				C829.5,416.7,827.9,416.9,826.7,417.3z"/>
			<path fill="#B39C6B" d="M825.2,432.5c-0.2-0.8-0.7-2.5-1.7-2.6c-0.1,0.3-0.2,0.5-0.3,0.7c0,0.3,0,0.6,0,0.9c0,0.4,0,0.7,0,1
				c0,0.3-0.1,0.9,0.1,1.2c0.2,0.3,0.5,0.5,0.7,0.8c0.2,0.5,0.3,0.9,0.3,1.4c0,0.5,0.1,1,0.3,1.4c0.3,0.5,0.6,1.1,1.2,1.4
				c0.9,0.4,1.7,0.9,2.7,1.1c0.5,0.1,1,0.1,1.5,0.2c1.2,0.1,2.6,0.2,3.9,0c0.5-0.1,0.9-0.1,1.4-0.2c0.5-0.1,0.9-0.2,1.4-0.3
				c0.5-0.1,1-0.2,1.5-0.4c0.1-0.1,0.3-0.1,0.4-0.2c0.3-0.2,0.3-0.4,0.3-0.7c0-0.5,0-0.9-0.1-1.4c0-0.1,0-0.3-0.1-0.4
				c-0.1-0.2-0.6-0.3-0.8-0.4c-0.4-0.1-0.7,0.2-1.1,0.2c-0.9,0.1-1.8,0-2.8-0.1c-1.3-0.1-2.5-0.4-3.8-0.6c-0.8-0.2-1.9-0.1-2.7-0.5
				C826.4,434.7,825.5,433.7,825.2,432.5z"/>
			<path fill="#8A6924" d="M826.5,420.2c0,0.6,0.2,1.4,0.4,1.9c0.2,0.5,0.4,1,0.7,1.5c0.2,0.4,0.5,0.8,0.7,1.3
				c0.2,0.5,0.3,1,0.5,1.4c0.2,0.4,0.2,0.8,0.3,1.1c0.1,0.3,0.3,0.4,0.4,0.7c0.1,0.2,0.1,0.5,0.2,0.7c0.5,0.1,1.8-0.3,2.1-0.4
				c0.4-0.1-0.1-0.6-0.2-0.9c0.1-0.3,0.1-0.6,0-0.8c-0.1-0.8-0.5-1.6-0.4-2.5c0-0.5,0.1-1,0.2-1.5c0.1-0.9,0.3-1.7,0.2-2.6
				c-0.1-0.8-0.4-1.6-0.7-2.3c-0.1-0.3-0.2-0.6-0.4-0.8c0.3-0.1,0.6-0.1,0.9,0.1c0.3,0.3,0.5,0.8,0.6,1.2c0.2,0.9,0.1,1.9,0.2,2.8
				c0,0.9,0.3,1.8,0.4,2.7c0.1,1.3,0.4,2.8,1,4c0.2,0.3,0.3,0.7,0.5,1c0.3,0.4,0.5,0.9,0.8,1.3c0.4,0.5,0.7,1,1,1.5
				c0.3,0.5,0.5,0.9,0.8,1.4c0.2,0.4,0.4,0.6,0.7,0.9c0.2,0.2,0.3,0.5,0.4,0.7c0.2,0.6,0.3,1.4-0.2,1.9c-0.6,0.6-1.7,0.8-2.5,0.9
				c-0.9,0.2-1.7,0.3-2.6,0.3c-1,0-2.1,0.1-3.1-0.1c-0.7-0.1-1.4-0.3-2-0.7c-0.3-0.2-0.6-0.4-0.8-0.6c-0.2-0.2-0.5-0.4-0.7-0.6
				c-0.2-0.2-0.3-0.6-0.5-0.9c-0.2-0.3-0.3-0.6-0.3-1c0-0.5,0-1.1-0.1-1.5c-0.2-0.8-1.1-1.1-1.3-2c-0.1-0.7,0.1-1.4,0.2-2.1
				c0-0.4,0.1-0.9,0.1-1.3c0-0.3,0.1-0.7,0.1-1c0-0.7,0.2-1.4,0.3-2.1c0.1-0.8,0-1.7-0.1-2.5c-0.1-0.4-0.1-0.7-0.2-1.1
				c0-0.4,0-0.8-0.1-1.2c-0.1-0.6-0.3-1.3,0-2c0.1-0.2,0.3-0.4,0.5-0.6c-0.1,0.1,0,0.6,0,0.7c0.1,0.2,0.4,0.3,0.6,0.3
				c0.5,0.1,1.2-0.1,1.5,0.4C826.8,418.7,826.5,419.5,826.5,420.2z"/>
			<path fill="#73571E" d="M827.2,432.2c0,0-0.1,0-0.1,0c-0.4-0.1-0.6-0.4-0.8-0.7c-0.1-0.2-0.3-0.4-0.5-0.6c-0.1,0-0.1-0.1-0.2,0
				c-0.2,0-0.3,0.2-0.4,0.4c-0.1,0.1-0.2,0.2-0.3,0.1c-0.1-0.1-0.2-0.2-0.1-0.3c0.1-0.3,0.4-0.6,0.7-0.7c0.2-0.1,0.5,0,0.6,0.1
				c0.2,0.2,0.4,0.4,0.6,0.7c0.2,0.2,0.3,0.5,0.5,0.5c0.1,0,0.2,0,0.4-0.2c0.2-0.2,0.4-0.4,0.6-0.6c0.1-0.2,0.3-0.3,0.4-0.5l0,0
				c0.3-0.3,0.7-0.6,0.8-1.1c0.2-0.5,0-0.9-0.2-1.3c0-0.1-0.1-0.2-0.1-0.3c0-0.1,0-0.3,0.1-0.3c0.1-0.1,0.3,0,0.3,0.1
				c0,0.1,0.1,0.2,0.1,0.3c0.2,0.5,0.5,1.1,0.2,1.7c-0.2,0.5-0.6,0.9-0.9,1.3l0,0c-0.1,0.1-0.3,0.3-0.4,0.4
				c-0.2,0.2-0.4,0.5-0.7,0.7C827.6,432.1,827.4,432.2,827.2,432.2z"/>
			<path fill="#73571E" d="M835.1,430.8c-0.1,0-0.1,0-0.2-0.1c-0.1-0.1-0.2-0.2-0.4-0.2c-0.2,0-0.4-0.1-0.6-0.1
				c-0.4,0-0.9-0.1-1.3-0.3c-0.5-0.3-0.6-0.9-0.8-1.4c-0.1-0.3-0.2-0.5-0.3-0.7c-0.1-0.1-0.1-0.3-0.1-0.4c0-0.1,0-0.1-0.1-0.2
				c0-0.1,0-0.3,0.1-0.3c0.1,0,0.3,0,0.3,0.1c0,0.1,0.1,0.2,0.1,0.3c0,0.1,0,0.2,0.1,0.3c0.1,0.2,0.2,0.5,0.3,0.8
				c0.1,0.5,0.3,0.9,0.6,1.1c0.3,0.2,0.6,0.2,1,0.3c0.2,0,0.4,0,0.7,0.1c0.2,0.1,0.5,0.2,0.7,0.4c0.1,0.1,0.1,0.3,0,0.3
				C835.2,430.8,835.1,430.8,835.1,430.8z"/>
			<path fill="#B39C6B" d="M828.6,429.6c-0.2,0-0.3-0.1-0.3-0.3c0-0.9,3.2-1.1,3.3-1.1c1-0.1,1.5,0,1.5,0.4c0,0.1-0.1,0.3-0.2,0.3
				c-0.1,0-0.2,0-0.3-0.1c-0.6-0.2-3.4,0.3-3.8,0.6C828.9,429.5,828.8,429.6,828.6,429.6z"/>
			<path fill="#8A6924" d="M831.7,438.7c-0.9,0-1.8-0.1-2.8-0.3c-1.1-0.2-2.3-0.5-3.2-1.4c-0.8-0.8-1.1-2-1.3-2.9
				c-0.1-0.2-0.1-0.5-0.1-0.7c0-0.3-0.1-0.6-0.2-0.8c-0.1-0.3-0.5-0.9-0.8-1.1c-0.1-0.1-0.1-0.2,0-0.3c0.1-0.1,0.2-0.1,0.3,0
				c0.4,0.3,0.8,0.9,1,1.3c0.1,0.3,0.1,0.6,0.2,0.9c0,0.2,0.1,0.4,0.1,0.6c0.2,0.8,0.5,2,1.2,2.7c0.8,0.8,1.9,1,2.9,1.2
				c1.3,0.2,2.5,0.3,3.6,0.2c0.6,0,1.2-0.2,1.8-0.3l0.5-0.1c0.6-0.1,1.2-0.3,1.8-0.5l0.2-0.1c0.4-0.2,1.1-0.4,1.3-0.7
				c0.1-0.1,0.2-0.2,0.3-0.1c0.1,0.1,0.2,0.2,0.1,0.3c-0.3,0.5-1,0.8-1.6,0.9l-0.2,0.1c-0.6,0.2-1.2,0.4-1.9,0.5l-0.5,0.1
				c-0.6,0.1-1.2,0.2-1.9,0.3C832.4,438.6,832.1,438.7,831.7,438.7z"/>
			<path fill="#B39C6B" d="M826.1,421.6c-0.1,0-0.2,0-0.2-0.1c0-0.1-0.1-0.2,0-0.3c0.1-0.2,0.2-0.3,1.4-0.7c0.6-0.2,1.4-0.5,2-0.7
				c0.1,0,0.2-0.1,0.3-0.1c0.6-0.2,1-0.4,1.5-0.8c0.1-0.1,0.1-0.1,0.2-0.2c0.1-0.1,0.2-0.2,0.3-0.3c0-0.1,0-0.1,0.1-0.2
				c0.1-0.1,0.3-0.1,0.4,0.1c0.2,0.3-0.1,0.5-0.4,0.8c-0.1,0.1-0.1,0.1-0.2,0.2c-0.5,0.4-1,0.7-1.6,0.9c-0.1,0-0.2,0.1-0.3,0.1
				c-0.6,0.2-1.3,0.5-2,0.7c-0.5,0.2-1,0.3-1.1,0.4c0,0,0,0-0.1,0.1C826.2,421.6,826.1,421.6,826.1,421.6z"/>
			<path fill="#B39C6B" d="M831.9,420.9c-0.1,0-0.1,0-0.2-0.1c-0.1,0-0.1-0.1-0.1-0.2c-0.3-0.1-1.2-0.4-1.8-0.5
				c-0.6-0.2-1.2-0.3-1.7-0.5c-1-0.4-2-0.5-2.3-0.4c-0.1,0.1-0.2,0.1-0.3,0.1c-0.1,0-0.3-0.2-0.2-0.3c0-0.1,0.1-0.2,0.2-0.3
				c0.5-0.3,1.9,0,2.8,0.4c0.4,0.1,1,0.3,1.6,0.5c1.5,0.4,2.1,0.6,2.2,0.9c0,0.1,0,0.2-0.1,0.3C832.1,420.8,832,420.9,831.9,420.9z"
				/>
			<path fill="none" stroke="#B39C6B" stroke-width="4" stroke-linecap="round" stroke-miterlimit="10" d="M833.5,428.3"/>
			<path fill="#B39C6B" d="M826.8,421.8c0.3,0,0.6,0.1,1,0.2c0.5,0.1,0.9,0.1,1.2,0.2c1,0.2,2,0.5,2.3,0.7c0,0,0,0.1,0,0.1
				c0,0.1,0.1,0.2,0.2,0.2c0,0,0.1,0,0.1,0c0.2-0.1,0.2-0.2,0.2-0.3c0-0.1-0.1-0.5-2.8-1.1c-0.3-0.1-0.8-0.1-1.2-0.2
				c-0.4-0.1-0.9-0.1-1.3-0.2C826.7,421.5,826.8,421.7,826.8,421.8z"/>
			<path fill="#B39C6B" d="M827.6,423.6c0,0.1,0.1,0.2,0.1,0.3c1.4,0.2,3.3,0.7,3.7,0.9c0,0.1,0.1,0.1,0.2,0.1c0,0,0,0,0.1,0
				c0.1,0,0.2-0.1,0.3-0.2c0-0.1,0-0.2-0.1-0.3c-0.3-0.4-3-1-4.4-1.1C827.5,423.4,827.5,423.5,827.6,423.6z"/>
			<path fill="#B39C6B" d="M828.7,425.8c1,0.1,2.7,0.4,3,0.6c0,0.1,0.1,0.2,0.3,0.2c0.2,0,0.3-0.1,0.3-0.3c0-0.4-0.4-0.6-3.7-1.1
				C828.5,425.4,828.6,425.6,828.7,425.8z"/>
			<g>
				<path fill="#B39C6B" d="M826.9,423.8c0.1,0,0.1,0,0.2-0.1c0.1-0.1,0.1-0.1,0.1-0.2c0.1-0.1,0.4-0.3,1.5-0.8l0,0
					c0.6-0.3,2-1.1,2.9-1.6c0-0.2,0-0.4,0-0.6c-0.8,0.5-2.4,1.4-3.1,1.7l0,0c-1.8,0.8-1.8,1.1-1.9,1.2c0,0.1,0,0.2,0.1,0.3
					C826.7,423.8,826.8,423.8,826.9,423.8z"/>
			</g>
			<path fill="#B39C6B" d="M827.6,425.7c0.1,0,0.1,0,0.2-0.1c0.1-0.1,0.1-0.2,0.1-0.3c0.1-0.2,0.6-0.7,1.1-0.8
				c0.4-0.1,1.6-0.6,2.3-1c0-0.2,0.1-0.5,0.1-0.7c-0.5,0.3-2.2,1-2.6,1.2c-0.7,0.2-1.4,0.8-1.5,1.3c-0.1,0.2,0,0.3,0.1,0.4
				C827.4,425.6,827.5,425.7,827.6,425.7z"/>
			<path fill="#B39C6B" d="M828.4,427.5C828.4,427.5,828.5,427.5,828.4,427.5c0.2,0,0.3-0.2,0.3-0.3c0.1-0.4,1.8-1.6,2.6-2.2
				c0-0.2-0.1-0.4-0.1-0.6c-0.8,0.4-2.3,1.5-2.8,2.1c-0.3,0.3-0.4,0.5-0.3,0.7C828.2,427.5,828.3,427.5,828.4,427.5z"/>
			<path fill="#B39C6B" d="M829.6,428.3c0.4-0.3,1.3-1,2.1-1.5c0,0,0-0.1,0-0.1c0-0.2-0.1-0.3-0.1-0.5c-1,0.7-1.7,1.2-2.2,1.6
				C829.5,427.9,829.5,428.1,829.6,428.3z"/>
			<path fill="#B39C6B" d="M829.3,427.7c0.8,0.1,2.1,0.4,2.6,0.5c0-0.2-0.1-0.3-0.2-0.6c-0.7-0.2-1.6-0.3-2.6-0.5
				c0,0.1,0,0.2,0.1,0.3C829.2,427.5,829.2,427.6,829.3,427.7z"/>
		</g>
		<g>
			<path fill="#73571E" d="M811.8,418.3c1.2,0.4,0.4,2.7,0.2,3.6c-0.3,1.4-0.7,2.9-1.4,4.2c-0.8,1.4-0.2,3.9-2.5,3.9
				c-0.6,0-2-0.2-2.3-0.9c-0.3-0.5,0.3-1.4,0.5-1.9c0.5-1.6,0.5-3.1,0.3-4.7c-0.2-1.2,0-3.3,1.2-4
				C809,417.7,810.6,417.9,811.8,418.3z"/>
			<path fill="#B39C6B" d="M813.3,433.5c0.2-0.8,0.7-2.5,1.7-2.6c0.1,0.3,0.2,0.5,0.3,0.8c0,0.3,0,0.6,0,0.9c0,0.4,0,0.7,0,1
				c0,0.3,0.1,0.9-0.1,1.2c-0.2,0.3-0.5,0.5-0.7,0.8c-0.2,0.4-0.3,0.9-0.3,1.4c0,0.5-0.1,1-0.3,1.4c-0.3,0.5-0.6,1.1-1.2,1.4
				c-0.9,0.4-1.7,0.9-2.7,1.1c-0.5,0.1-1,0.1-1.5,0.2c-1.2,0.1-2.6,0.2-3.9,0c-0.5-0.1-0.9-0.1-1.4-0.2c-0.5-0.1-0.9-0.2-1.4-0.3
				c-0.5-0.1-1-0.2-1.5-0.4c-0.1-0.1-0.3-0.1-0.4-0.2c-0.3-0.2-0.3-0.4-0.3-0.7c0-0.5,0-0.9,0.1-1.4c0-0.1,0-0.3,0.1-0.4
				c0.1-0.2,0.6-0.3,0.8-0.4c0.4-0.1,0.7,0.2,1.1,0.2c0.9,0.1,1.8,0,2.8-0.1c1.3-0.1,2.5-0.4,3.8-0.6c0.8-0.1,1.9-0.1,2.7-0.5
				C812.1,435.7,813,434.7,813.3,433.5z"/>
			<path fill="#8A6924" d="M812,421.2c0,0.6-0.2,1.4-0.4,1.9c-0.2,0.5-0.4,1-0.7,1.5c-0.2,0.4-0.5,0.8-0.7,1.3
				c-0.2,0.5-0.3,1-0.5,1.4c-0.2,0.4-0.2,0.8-0.3,1.1c-0.1,0.3-0.3,0.4-0.4,0.7c-0.1,0.2-0.1,0.5-0.2,0.7c-0.5,0.1-1.8-0.3-2.1-0.4
				c-0.4-0.1,0.1-0.6,0.2-0.9c-0.1-0.3-0.1-0.6,0-0.8c0.1-0.8,0.5-1.6,0.4-2.5c0-0.5-0.1-1-0.2-1.5c-0.1-0.9-0.3-1.7-0.2-2.6
				c0.1-0.8,0.4-1.6,0.7-2.3c0.1-0.3,0.2-0.6,0.4-0.8c-0.3-0.1-0.6-0.1-0.9,0.1c-0.3,0.3-0.5,0.8-0.6,1.2c-0.2,0.9-0.1,1.9-0.2,2.8
				c0,0.9-0.3,1.8-0.4,2.7c-0.1,1.3-0.4,2.8-1,4c-0.2,0.3-0.3,0.7-0.5,1c-0.3,0.4-0.5,0.9-0.8,1.3c-0.4,0.5-0.7,1-1,1.5
				c-0.2,0.5-0.5,0.9-0.8,1.4c-0.2,0.4-0.4,0.6-0.7,0.9c-0.2,0.2-0.3,0.5-0.4,0.7c-0.2,0.6-0.3,1.4,0.2,1.9c0.6,0.6,1.7,0.8,2.5,0.9
				c0.9,0.2,1.7,0.3,2.6,0.3c1,0.1,2.1,0.1,3.1-0.1c0.7-0.1,1.4-0.3,2-0.7c0.3-0.2,0.6-0.4,0.8-0.6c0.2-0.2,0.5-0.4,0.7-0.6
				c0.2-0.2,0.3-0.6,0.5-0.9c0.2-0.3,0.3-0.6,0.3-1c0-0.5,0-1.1,0.1-1.5c0.2-0.8,1.1-1.1,1.3-2c0.1-0.7-0.1-1.4-0.2-2.1
				c0-0.4-0.1-0.9-0.1-1.3c0-0.3-0.1-0.7-0.1-1c0-0.7-0.2-1.4-0.3-2.1c-0.1-0.8,0-1.7,0.1-2.5c0.1-0.4,0.1-0.7,0.2-1.1
				c0-0.4,0-0.8,0.1-1.2c0.1-0.6,0.3-1.3,0-2c-0.1-0.2-0.3-0.4-0.5-0.6c0.1,0.1,0,0.6,0,0.7c-0.1,0.2-0.4,0.3-0.6,0.3
				c-0.5,0.1-1.2-0.1-1.5,0.4C811.8,419.7,812,420.5,812,421.2z"/>
			<path fill="#73571E" d="M811.3,433.2c-0.2,0-0.4-0.1-0.7-0.3c-0.3-0.2-0.5-0.4-0.7-0.7c-0.1-0.2-0.2-0.3-0.4-0.4l0,0
				c-0.4-0.4-0.7-0.7-0.9-1.2c-0.2-0.6,0-1.2,0.2-1.7c0-0.1,0.1-0.2,0.1-0.3c0-0.1,0.2-0.2,0.3-0.1c0.1,0,0.2,0.2,0.1,0.3
				c0,0.1-0.1,0.2-0.1,0.3c-0.2,0.5-0.4,0.9-0.2,1.3c0.2,0.4,0.5,0.7,0.8,1.1l0,0c0.2,0.1,0.3,0.3,0.4,0.5c0.2,0.2,0.4,0.4,0.6,0.6
				c0.2,0.1,0.3,0.2,0.4,0.2c0.2,0,0.3-0.3,0.5-0.5c0.2-0.2,0.3-0.5,0.6-0.7c0.2-0.1,0.4-0.2,0.6-0.1c0.3,0.1,0.6,0.3,0.7,0.6
				c0.1,0.1,0,0.3-0.1,0.3c-0.1,0.1-0.3,0-0.3-0.1c-0.1-0.2-0.2-0.3-0.4-0.4c-0.1,0-0.1,0-0.2,0c-0.2,0.1-0.3,0.3-0.5,0.6
				c-0.2,0.3-0.4,0.6-0.8,0.7C811.4,433.2,811.3,433.2,811.3,433.2z"/>
			<path fill="#73571E" d="M803.4,431.8c-0.1,0-0.1,0-0.1-0.1c-0.1-0.1-0.1-0.2,0-0.3c0.2-0.3,0.5-0.4,0.7-0.4
				c0.2-0.1,0.4-0.1,0.7-0.1c0.4,0,0.7-0.1,1-0.3c0.3-0.2,0.4-0.7,0.6-1.1c0.1-0.3,0.2-0.6,0.3-0.8c0-0.1,0.1-0.2,0.1-0.3
				c0-0.1,0-0.2,0.1-0.3c0-0.1,0.2-0.2,0.3-0.1c0.1,0,0.2,0.2,0.1,0.3c0,0.1,0,0.1-0.1,0.2c0,0.1-0.1,0.3-0.1,0.4
				c-0.1,0.2-0.2,0.4-0.3,0.7c-0.1,0.5-0.3,1.1-0.8,1.4c-0.4,0.3-0.8,0.3-1.3,0.3c-0.2,0-0.4,0-0.6,0.1c-0.2,0.1-0.3,0.1-0.4,0.2
				C803.6,431.8,803.5,431.8,803.4,431.8z"/>
			<path fill="#B39C6B" d="M809.9,430.6c0.2,0,0.3-0.1,0.3-0.3c0-0.9-3.2-1.1-3.3-1.1c-1-0.1-1.5,0-1.5,0.4c0,0.1,0.1,0.3,0.2,0.3
				c0.1,0,0.2,0,0.3-0.1c0.6-0.2,3.4,0.3,3.8,0.6C809.7,430.5,809.8,430.6,809.9,430.6z"/>
			<path fill="#8A6924" d="M806.8,439.6c-0.3,0-0.6,0-0.9,0c-0.6,0-1.3-0.2-1.9-0.3l-0.5-0.1c-0.7-0.1-1.3-0.3-1.9-0.5l-0.2-0.1
				c-0.5-0.2-1.3-0.5-1.6-0.9c-0.1-0.1,0-0.3,0.1-0.3c0.1-0.1,0.3,0,0.3,0.1c0.2,0.3,0.9,0.6,1.3,0.7l0.2,0.1
				c0.5,0.2,1.1,0.3,1.8,0.5l0.5,0.1c0.6,0.1,1.2,0.2,1.8,0.3c1.1,0.1,2.3,0,3.6-0.2c1-0.2,2.2-0.5,2.9-1.2c0.7-0.7,1-1.8,1.2-2.7
				c0-0.2,0.1-0.4,0.1-0.6c0-0.3,0.1-0.6,0.2-0.9c0.1-0.4,0.6-1,1-1.3c0.1-0.1,0.3-0.1,0.3,0c0.1,0.1,0.1,0.3,0,0.3
				c-0.3,0.2-0.7,0.8-0.8,1.1c-0.1,0.2-0.1,0.5-0.2,0.8c0,0.2-0.1,0.5-0.1,0.7c-0.2,0.9-0.5,2.1-1.3,2.9c-0.8,0.9-2.1,1.2-3.2,1.4
				C808.6,439.6,807.7,439.6,806.8,439.6z"/>
			<path fill="#B39C6B" d="M812.5,422.6c0.1,0,0.2,0,0.2-0.1c0.1-0.1,0.1-0.2,0-0.3c-0.1-0.2-0.2-0.3-1.4-0.7
				c-0.6-0.2-1.4-0.5-2-0.7c-0.1,0-0.2-0.1-0.3-0.1c-0.6-0.2-1-0.4-1.5-0.8c-0.1-0.1-0.1-0.1-0.2-0.2c-0.1-0.1-0.2-0.2-0.3-0.3
				c0-0.1,0-0.1-0.1-0.2c-0.1-0.1-0.3-0.1-0.4,0.1c-0.2,0.3,0.1,0.5,0.4,0.8c0.1,0.1,0.1,0.1,0.2,0.2c0.5,0.4,1,0.7,1.6,0.9
				c0.1,0,0.2,0.1,0.3,0.1c0.6,0.2,1.3,0.5,2,0.7c0.5,0.2,1,0.3,1.1,0.4c0,0,0,0,0.1,0.1C812.4,422.6,812.4,422.6,812.5,422.6z"/>
			<path fill="#B39C6B" d="M806.6,421.9c0.1,0,0.1,0,0.2-0.1c0.1,0,0.1-0.1,0.1-0.2c0.3-0.1,1.2-0.4,1.8-0.5
				c0.6-0.2,1.2-0.3,1.7-0.5c1-0.4,2-0.5,2.3-0.4c0.1,0.1,0.2,0.1,0.3,0.1c0.1,0,0.3-0.2,0.2-0.3c0-0.1-0.1-0.2-0.2-0.3
				c-0.5-0.3-1.9,0-2.8,0.4c-0.4,0.1-1,0.3-1.6,0.5c-1.5,0.4-2.1,0.6-2.2,0.9c0,0.1,0,0.2,0.1,0.3
				C806.5,421.8,806.5,421.9,806.6,421.9z"/>
			<path fill="none" stroke="#B39C6B" stroke-width="4" stroke-linecap="round" stroke-miterlimit="10" d="M805,429.3"/>
			<path fill="#B39C6B" d="M811.7,422.8c-0.3,0-0.6,0.1-1,0.2c-0.5,0.1-0.9,0.1-1.2,0.2c-1,0.2-2,0.5-2.3,0.7c0,0,0,0.1,0,0.1
				c0,0.1-0.1,0.2-0.2,0.2c0,0-0.1,0-0.1,0c-0.2-0.1-0.2-0.2-0.2-0.3c0-0.1,0.1-0.5,2.8-1.1c0.3-0.1,0.8-0.1,1.2-0.2
				c0.4-0.1,0.9-0.1,1.3-0.2C811.8,422.5,811.8,422.7,811.7,422.8z"/>
			<path fill="#B39C6B" d="M810.9,424.6c0,0.1-0.1,0.2-0.1,0.3c-1.4,0.2-3.3,0.7-3.7,0.9c0,0.1-0.1,0.1-0.2,0.1c0,0-0.1,0-0.1,0
				c-0.1,0-0.2-0.1-0.3-0.2c0-0.1,0-0.2,0.1-0.3c0.3-0.4,3-1,4.4-1.1C811,424.4,811,424.5,810.9,424.6z"/>
			<path fill="#B39C6B" d="M809.9,426.8c-1,0.1-2.7,0.4-3,0.6c0,0.1-0.1,0.2-0.3,0.2c-0.2,0-0.3-0.1-0.3-0.3c0-0.4,0.4-0.6,3.7-1.1
				C810,426.4,809.9,426.6,809.9,426.8z"/>
			<g>
				<path fill="#B39C6B" d="M811.7,424.8c-0.1,0-0.1,0-0.2-0.1c-0.1-0.1-0.1-0.1-0.1-0.2c-0.1-0.1-0.4-0.3-1.5-0.8l0,0
					c-0.6-0.3-2-1.1-2.9-1.6c0-0.2,0-0.4,0-0.6c0.8,0.5,2.4,1.4,3.1,1.7l0,0c1.8,0.8,1.8,1.1,1.9,1.2c0,0.1,0,0.2-0.1,0.3
					C811.8,424.8,811.7,424.8,811.7,424.8z"/>
			</g>
			<path fill="#B39C6B" d="M810.9,426.7c-0.1,0-0.1,0-0.2-0.1c-0.1-0.1-0.1-0.2-0.1-0.3c-0.1-0.2-0.6-0.7-1.1-0.8
				c-0.4-0.1-1.6-0.6-2.3-1c0-0.2-0.1-0.5-0.1-0.7c0.5,0.3,2.2,1,2.6,1.2c0.6,0.2,1.4,0.8,1.5,1.3c0.1,0.2,0,0.3-0.1,0.4
				C811.1,426.6,811,426.7,810.9,426.7z"/>
			<path fill="#B39C6B" d="M810.1,428.5C810.1,428.5,810.1,428.5,810.1,428.5c-0.2,0-0.3-0.2-0.3-0.3c-0.1-0.4-1.8-1.6-2.6-2.2
				c0-0.2,0.1-0.4,0.1-0.6c0.8,0.4,2.3,1.5,2.8,2.1c0.3,0.3,0.4,0.5,0.3,0.7C810.3,428.4,810.2,428.5,810.1,428.5z"/>
			<path fill="#B39C6B" d="M808.9,429.3c-0.4-0.3-1.3-1-2.1-1.5c0,0,0-0.1,0-0.1c0-0.2,0.1-0.3,0.1-0.5c1,0.7,1.7,1.2,2.2,1.6
				C809.1,428.9,809,429.1,808.9,429.3z"/>
			<path fill="#B39C6B" d="M809.3,428.7c-0.8,0.1-2.1,0.4-2.6,0.5c0-0.2,0.1-0.3,0.2-0.6c0.7-0.2,1.6-0.3,2.6-0.5
				c0,0.1,0,0.2-0.1,0.3C809.4,428.5,809.3,428.6,809.3,428.7z"/>
		</g>
		<path fill="#DECBA2" d="M786,324.7l-4.6-1.8c0.6-1.5,0.6-3.4,0.6-5.4c0.1-4.3,0.2-10.1,6.6-13.3l2.2,4.4c-3.6,1.8-3.8,4.4-3.9,8.9
			C786.9,320,786.9,322.4,786,324.7z"/>
		<path fill="#DECBA2" d="M810.9,291c1.1,2.4,0.9,3.8,1.5,6.4c0.3,1.2,0.1,9.9,1,10.8c1.6,1.6,6.1,3,8.2,3.2c3.5,0.3,4-9.2,4.5-12.6
			c0.5-3.6,1.3-5.8,1.4-9.4"/>
		<path fill="#969390" d="M834.1,333.8c-0.2-6.5,0.2-14.1,0-20.5c-0.1-1.9,0.1-4,0.2-6.7c0.5,3.4,0.6,6.1-0.1,8.7
			c-0.5,1.9,6.1,4.4,6.6,2.2c1.4-5.5,1.1-12.9,0-17.7c-0.4-2-1.9-2.5-6.1-3.2c-2.4-0.4-6.4-0.6-7.7-0.8c-0.5,0.7-0.6,1.5-1.5,2.3
			c-2.2,2.1-2.9,1.4-3.9,1.8c-0.2,1.6-0.3,3-1.1,5.5c-0.2,0.7-0.8,2.2-1.1,2.7c-0.5-1.9-0.9-3-1.3-4.7c-0.1-0.6-0.5-2.4-0.7-3.3
			c-0.1-0.4-0.9-0.8-1.4-1c-2.4-1.1-4-2.8-4.1-3.1c-2.2,0-8.1,0.7-10.3,1c-3.9,0.5-9.6,2.3-13.7,5.5c-2.2,1.8,3,7.5,4.4,6.7
			c3.1-1.6,5.2-2.8,8.3-3c-0.5,3.4-0.7,12.3-0.4,15.7c0.3,4,0,7.9,0.2,11.9c0.1,3.1,0.7,6.1,0.9,9.2c0.1,1.1,0.1,2.1,0.1,3.2
			c-0.7,0.8-1.6,1.2-0.5,1.9c1.2,0.9,4,0.9,5.4,1c4.5,0.3,9.1,0.1,13.6,0.1c3.6,0,7.4-0.5,11,0c1.6,0.2,5.8,0.9,4.7-2.2
			c-0.9-2.5-1-4.7-1-7.4C834.7,337.9,834.2,335.9,834.1,333.8z"/>
		<path fill="#4D576B" d="M804.3,422.7c1.1,0.4,10.1,0.2,11.1-0.8c0.3-3.5,0.8-27.4,1-30.7c0.8-9.9,0.9-20.6,2.7-30.4
			c0-0.1,0-0.1,0,0c3.5,7.3,3.3,19.1,3.1,27c-0.1,3.8,0.8,31.9,1.2,34.1c1.9,0.4,8.4,0.6,10.7-0.6c0.2-2,0.7-12.1,0.7-14.4
			c0-1.6,0.7-35.1,0.6-45.8c0-2.2,0.4-4.5,0.6-6.7c0.1-1.2,0.1-2.3,0.1-3.5c0-0.5-0.1-2.2-0.2-2.5c-0.2,0-1.4,0-1.7-0.1
			c-1-0.1-2.1,0.1-3.1,0.2c-2,0.1-4.1,0-6.2,0.1c-1.8,0.1-3.7,0-5.6,0.1c-1.8,0.1-3.6,0.4-5.4,0.4c-3.8,0.1-7.4,0.3-11.2-0.1
			c-2.3-0.2-2.5,1-2.2,3.3c0.4,2.8,0.8,5.6,1,8.4C801.6,363.3,803.3,417.6,804.3,422.7z"/>
		<g>
			<path fill="#E8D4AA" d="M805.1,283c0.8,2.8,1.7,7.3,4.6,8.7c2,1,6.1,0.1,8.3,0c2.9-0.1,4.4,0.5,7.3,0.5c5.7-0.1,6-5.3,7.5-9.9
				c0.9-2.7,2.4-5.2,3.4-7.9c0.9-2.4,1.7-6.2,1.2-8.8c-0.2-0.8-0.4-1.2-1.1-1.6c-2.9-1.4-7.3-0.2-10.2,0.6
				c-4.5,1.2-9.3,1.3-13.9,1.8c-2.2,0.2-6.1,0.4-8,1.6c-2,1.3-0.9,3.9-0.6,5.9C803.9,277,804.3,280,805.1,283z"/>
			<path fill="#FFF3DB" d="M814.8,269.1c-0.3,1.9,0,3.4-1.9,4.5c-1.1,0.6-2.8,0.7-4,0.1c-1.3-0.6-1.7-2.2-1.8-3.5c0-0.2,0-0.4,0-0.6
				"/>
			<path fill="#FFF3DB" d="M831,268.2c-0.3,1.9,0,3.4-1.9,4.5c-1.1,0.6-2.8,0.7-4,0.1c-1.3-0.6-1.7-2.2-1.8-3.5c0-0.2,0-0.4,0-0.6"
				/>
			<path fill="#CCBA95" d="M820.9,265.5c-0.1,2.7-0.1,5.4,0,8c0.1,2,0.9,4.9-0.7,6.5c-0.6,0.6-1.1,0.9-1.8,0.3
				c-1.2-1-0.6-2.4-0.6-3.7c0-1.7-0.2-3.3-0.2-5c0-1.9-0.5-4.6,0.3-6.3"/>
			<g>
				<path fill="#627AB5" d="M811.9,270.5c-0.1-0.9-1.3-1.1-2-0.8c-0.5,0.3-0.5,0.8-0.3,1.3C810.2,272.2,812.1,271.9,811.9,270.5z"/>
				<path fill="#FFF9EB" d="M810.7,269.6c0.6,0,1.1,0.3,1.2,0.9c0.1,0.8-0.5,1.2-1.1,1.2c-0.5,0-0.9-0.2-1.1-0.7
					c-0.2-0.5-0.2-1,0.3-1.3C810.2,269.7,810.4,269.6,810.7,269.6 M810.7,268.6c-0.4,0-0.8,0.1-1.2,0.3c-1,0.5-1.3,1.5-0.7,2.6
					c0.4,0.8,1.2,1.3,2,1.3c0.6,0,1.2-0.3,1.6-0.7c0.4-0.4,0.5-1,0.4-1.6C812.8,269.3,811.9,268.6,810.7,268.6L810.7,268.6z"/>
			</g>
			<g>
				<path fill="#627AB5" d="M828.4,269.7c-0.1-0.9-1.3-1.1-2-0.8c-0.5,0.3-0.5,0.8-0.3,1.3C826.7,271.3,828.6,271.1,828.4,269.7z"/>
				<path fill="#FFF9EB" d="M827.2,268.8c0.6,0,1.1,0.3,1.2,0.9c0.1,0.8-0.5,1.2-1.1,1.2c-0.5,0-0.9-0.2-1.1-0.7
					c-0.2-0.5-0.2-1,0.3-1.3C826.6,268.8,826.9,268.8,827.2,268.8 M827.2,267.8c-0.4,0-0.8,0.1-1.2,0.3c-1,0.5-1.3,1.5-0.7,2.6
					c0.4,0.8,1.2,1.3,2,1.3c0.6,0,1.2-0.3,1.6-0.7c0.4-0.4,0.5-1,0.4-1.6C829.2,268.5,828.3,267.8,827.2,267.8L827.2,267.8z"/>
			</g>
			<path fill="#CCBA95" d="M820.7,276.8c0.5,0.2,1.9,0.1,2,0.9c0.2,0.9-1.5,1.1-2,1.2c-1.1,0.2-3.7,0.4-4.6-0.7
				c-1-1.3,2-1.3,2.6-1.3"/>
			<g>
				<path fill="#CCBA95" d="M820,285.5c-1.9,0.1-4.9,0.5-5.9-1.4c1.2,1.7,3.5,1.4,5.5,1.4c0.5,0,1-0.1,1.4-0.1"/>
				<path fill="#CCBA95" d="M817.9,286.3c-1.7,0-3.5-0.3-4.4-1.9c-0.2-0.3-0.1-0.8,0.3-1c0.3-0.2,0.8-0.1,1,0.2
					c0.8,1.2,2.4,1.1,4.1,1.1c0.3,0,0.5,0,0.8,0c0.2,0,0.4,0,0.7,0c0.3,0,0.5,0,0.8,0c0.4,0,0.7,0.3,0.7,0.8c0,0.4-0.3,0.7-0.7,0.7
					c0,0,0,0,0,0c-0.2,0-0.4,0-0.6,0c0,0-0.1,0-0.1,0c-0.1,0-0.2,0-0.2,0c-0.2,0-0.5,0-0.7,0C818.9,286.3,818.4,286.3,817.9,286.3z"
					/>
			</g>
			<path fill="#826F46" d="M812.9,269.6c0.7,0,2,0.4,2-0.7c-0.1-0.9-1.2-0.6-1.8-0.5c-1.1,0.1-2.3,0.3-3.4,0.3c-0.5,0-1.1,0-1.6,0
				c-0.3,0-0.6,0-0.9,0.2c-0.3,0.2-0.2,0.3-0.2,0.6c-0.1,1.2,1.3,0.8,2.1,0.6C810.3,269.9,811.6,269.6,812.9,269.6z"/>
			<path fill="#826F46" d="M824,269.2c0.2,0,0.3,0,0.4,0c0.4,0,0.9-0.2,1.3-0.2c0.7-0.1,1.5,0,2.2-0.1c0.8,0,1.6,0,2.4-0.1
				c0.2,0,0.6,0.1,0.7-0.2c0.1-0.1,0-0.6-0.1-0.7c-0.1-0.2-0.4-0.2-0.6-0.2c-0.6-0.1-1.2,0-1.8,0.1c-0.7,0-1.3,0-2-0.1
				c-0.4,0-0.9,0-1.3,0c-0.4,0-0.8,0-1.3,0.1c-0.2,0-0.5,0-0.7,0.1c-0.2,0.2-0.1,1.1,0.1,1.3C823.5,269.2,823.7,269.2,824,269.2z"/>
		</g>
		<path fill="#373E4D" d="M803.2,357.1c-0.1,0-0.2,0-0.3,0c-0.2,0-0.3,0-0.4,0c-0.1,0-0.3-0.1-0.3-0.2c0-0.1,0.1-0.3,0.2-0.3
			c0.2,0,0.4,0,0.6,0c0.2,0,0.3,0,0.5,0c1.6-0.4,1.6-1.8,1.6-3.3c0-0.2,0-0.3,0-0.5c0-0.1,0.1-0.3,0.2-0.3c0,0,0,0,0,0
			c0.1,0,0.2,0.1,0.2,0.2c0,0.2,0,0.3,0,0.5c0,1.5,0.1,3.3-2,3.8C803.4,357.1,803.3,357.1,803.2,357.1z"/>
		<g>
			<path fill="#DEB249" d="M839.8,270.5c-0.3,2.2,0,5.6-3.5,4.6c-1.1-0.3-0.3-3-0.2-4c0.2-2,0.3-4.1,0.8-6.1c1-0.3,2.4-0.5,2.9,0.6
				C840.5,267.1,840,269,839.8,270.5z"/>
			<g>
				<defs>
					<path id="SVGID_10_" d="M839.8,270.5c-0.3,2.2,0,5.6-3.5,4.6c-1.1-0.3-0.3-3-0.2-4c0.2-2,0.3-4.1,0.8-6.1
						c1-0.3,2.4-0.5,2.9,0.6C840.5,267.1,840,269,839.8,270.5z"/>
				</defs>
				<clipPath id="SVGID_11_">
					<use xlink:href="#SVGID_10_"  overflow="visible"/>
				</clipPath>
				<path clip-path="url(#SVGID_11_)" fill="#8A8A8A" d="M837,264.7c1.2,0.2,0.7,1.7,0.6,2.4c-0.1,0.5-0.1,1-0.2,1.5
					c-0.1,1.3-0.4,2.5-0.5,3.8c-0.1,0.7,0,1.6-0.3,2.3c-0.1,0.3-0.5,0.9-0.9,0.8c-0.5-0.2-0.2-1.5-0.2-1.9c0.4-2.8,1-5.6,1.1-8.4"/>
			</g>
			<path fill="#DEB249" d="M800.6,271.9c0.1,2.2-0.5,5.6,3.1,4.9c1.2-0.2,0.6-2.9,0.6-3.9c-0.1-2,0.1-4.1-0.3-6.1
				c-1-0.4-2.3-0.7-2.9,0.3C800.2,268.5,800.5,270.4,800.6,271.9z"/>
			<g>
				<defs>
					<path id="SVGID_12_" d="M800.6,271.9c0.1,2.2-0.5,5.6,3.1,4.9c1.2-0.2,0.6-2.9,0.6-3.9c-0.1-2,0.1-4.1-0.3-6.1
						c-1-0.4-2.3-0.7-2.9,0.3C800.2,268.5,800.5,270.4,800.6,271.9z"/>
				</defs>
				<clipPath id="SVGID_13_">
					<use xlink:href="#SVGID_12_"  overflow="visible"/>
				</clipPath>
				<path clip-path="url(#SVGID_13_)" fill="#8A8A8A" d="M803.9,266.4c-1.2,0-0.8,1.6-0.8,2.3c0,0.5,0,1,0,1.5
					c0,1.3,0.1,2.5,0.2,3.8c0,0.8-0.1,1.6,0.1,2.3c0.1,0.3,0.5,0.9,0.8,0.8c0.6-0.1,0.4-1.5,0.3-1.9c-0.1-2.8-0.5-5.6-0.3-8.5"/>
			</g>
			<path fill="#E8E23C" d="M820.8,263.8c-3.7,0.9-7.3,1.9-11.1,2.6c-3,0.5-8,1.5-10.8,0.4c-2.5-1-1.7-3.1,0.9-2.7
				c0.7-5.1,0.8-5.2,1.4-10.3c0.3-2.7,0.7-5.4,1.7-8c4-10.1,16.8-12,25.5-7.2c8.9,4.9,11.2,11.2,11.8,20.8c1.5,0.2,1.8,1.2,1.1,2.3
				c-1.2,1.9-4.9,1.4-6.8,1.6C830.1,263.8,825.1,262.7,820.8,263.8z"/>
			<path fill="#E3E3E3" d="M841.7,263.1c0,0.3-0.1,0.7-0.3,1.1c-1.2,1.9-4.9,1.4-6.8,1.6c-4.5,0.5-9.5-0.6-13.8,0.5
				c-3.7,0.9-7.3,1.9-11.1,2.6c-3,0.5-8,1.5-10.8,0.4c-1-0.4-1.5-1-1.5-1.5c0-0.8,0-0.6,0-2.5c0,0.5,0.5,1.1,1.5,1.5
				c2.9,1.2,7.9,0.1,10.8-0.4c3.7-0.6,7.4-1.7,11.1-2.6c4.4-1.1,9.4,0,13.8-0.5c1.9-0.2,5.6,0.3,6.8-1.6c0.2-0.4,0.3-0.7,0.3-1
				C841.7,262.6,841.6,262.5,841.7,263.1z"/>
			<g>
				<defs>
					<path id="SVGID_14_" d="M820.8,263.8c-3.7,0.9-7.3,1.9-11.1,2.6c-3,0.5-8,1.5-10.8,0.4c-2.5-1-1.7-3.1,0.9-2.7
						c0.7-5.1,0.8-5.2,1.4-10.3c0.3-2.7,0.7-5.4,1.7-8c4-10.1,16.8-12,25.5-7.2c8.9,4.9,11.2,11.2,11.8,20.8
						c1.5,0.2,1.8,1.2,1.1,2.3c-1.2,1.9-4.9,1.4-6.8,1.6C830.1,263.8,825.1,262.7,820.8,263.8z"/>
				</defs>
				<clipPath id="SVGID_15_">
					<use xlink:href="#SVGID_14_"  overflow="visible"/>
				</clipPath>
				<path clip-path="url(#SVGID_15_)" fill="#D4CF37" d="M812.4,247.4c0-0.6,0-1.1,0.1-1.7c0.3-2.9,1-4.8,1.6-7.6
					c0.1-0.6,0.2-1.8,0.7-2.2c0.4-0.3,1.9-0.3,2.5-0.4c1.8-0.3,4.1-0.6,5.9,0c-0.3,4.8-1.2,6.1-1.1,11.1c0.1,2.8-0.1,3.8-0.1,6.6
					c0,0.6,0.3,2.3-0.1,2.8c-0.5,0.6-1.4,0.2-2.1,0.3c-1.5,0-5,1.1-6.4,0.3c-1.1-0.6-0.8-2.4-0.8-3.5c0-2.8,0.1-0.7-0.1-3.5
					C812.5,248.8,812.5,248.1,812.4,247.4z"/>
			</g>
			<path fill="#D4CF37" d="M803.5,265.2c-0.8,0-1.7-0.1-2.5-0.4c-0.1,0-0.2-0.2-0.2-0.3s0.2-0.2,0.3-0.2c1.9,0.7,4,0.3,6-0.1
				c0.3-0.1,0.7-0.1,1-0.2c1.7-0.3,3.3-0.7,5-1.1c3.3-0.7,6.7-1.5,10.1-1.7c1.1-0.1,2.2-0.1,3.3-0.1c2.1-0.1,4.2-0.1,6.3-0.4
				c0.5-0.1,1-0.1,1.5-0.1c1.5-0.1,3.3-0.2,4.3-1c0.1-0.1,0.3-0.1,0.3,0c0.1,0.1,0.1,0.3,0,0.4c-1.2,1-3,1.1-4.6,1.1
				c-0.5,0-1,0-1.5,0.1c-2.1,0.2-4.3,0.3-6.4,0.4c-1.1,0-2.2,0.1-3.3,0.1c-3.4,0.2-6.7,0.9-10,1.7c-1.6,0.4-3.3,0.8-5,1.1
				c-0.3,0.1-0.6,0.1-1,0.2C806,264.9,804.7,265.2,803.5,265.2z"/>
		</g>
		<path fill="#EBE7E3" d="M826.6,295.9c-0.3,0.6-0.6,1.6-1.1,2.1c-0.7,0.7-1.7,1.4-2.6,1.7c-0.7,0.2-1.4,0.1-2,0.3
			c-0.3,2.2-1.4,4.7-1.7,7.1c-0.1,0-1.2-5.6-1.9-7.3c-1.1-0.6-3.3-1.6-4-2.2c-0.4-0.3-1.1-0.9-1.3-1.5c-0.1,0-0.3,0-0.4,0
			c0.2,0.4,0.9,1.3,1.6,1.8c0.6,0.5,2.7,1.5,3.8,2.1c0.4,1.2,1,4.5,2,7.5c-0.1,0.4-0.5,3.8-0.6,4.2c0.3,0.1,1.1,0.1,1.3,0
			c0.7-3.1,1.7-8.6,2.4-11.6c2.7-0.4,4.1-2.1,4.8-4.1C826.8,295.9,826.8,295.9,826.6,295.9z"/>
		<polygon fill="#B3572D" points="831.6,347.3 827.5,347.3 828,296.1 831.6,296.4 		"/>
		<rect x="827.2" y="347.1" fill="#CCCCCC" width="4.8" height="1.3"/>
		<g>
			<path fill="#CCCCCC" d="M831.3,349.2c0,0.1-0.1,0.3-0.3,0.3h-2.8c-0.1,0-0.3-0.1-0.3-0.3v-1c0-0.1,0.1-0.3,0.3-0.3h2.8
				c0.1,0,0.3,0.1,0.3,0.3V349.2z"/>
		</g>
		<g>
			<path fill="#EBE7E3" d="M792.8,308.6c-0.2-0.9-1.2-1.9-1.7-2.6c-0.9-1-1.2-1.9-2.3-3c-0.5-0.4-0.9-0.5-1.4-0.2
				c-0.4,0.3-0.6,0.6-0.6,1.3c-0.9,0-1.8,0.6-1.3,1.6c0.7,1.4,2.7,4.6,4,5.3c1,0.6,1.6,1,2.2-0.5
				C792.7,310.1,793.1,309.6,792.8,308.6z"/>
			<path fill="#D6D3CF" d="M790.5,309.9C790.4,309.9,790.4,309.9,790.5,309.9c-1.1-0.8-1.9-1.9-2.6-3c-0.3-0.5-0.7-1-1-1.5
				c0-0.1,0-0.1,0-0.2c0.1,0,0.1,0,0.2,0c0.4,0.5,0.7,1,1,1.5c0.7,1.1,1.4,2.2,2.4,2.9C790.6,309.7,790.6,309.8,790.5,309.9
				C790.5,309.9,790.5,309.9,790.5,309.9z"/>
		</g>
		<path fill="#B38F3B" d="M813,339.4c-0.1,0-0.2-0.1-0.3-0.1c-0.2,0-0.5,0.1-0.7,0.3c-0.1,0.1-0.2,0.2-0.2,0.2
			c0.2,0.1,0.4,0.2,0.6,0.3c0.5,0.2,1-0.1,1.3-0.4c0.3-0.2,0.1-0.4-0.2-0.3C813.3,339.4,813.2,339.4,813,339.4
			C813,339.4,813,339.4,813,339.4z"/>
		<path fill="#DECBA2" d="M817.4,343.4l-4.4-2.3c2.3-4.4,6-6.9,9.5-9.4c4.7-3.2,9.5-6.6,12.2-14.7l4.7,1.6
			c-3.3,9.7-9,13.7-14.1,17.2C822,338.1,819.1,340,817.4,343.4z"/>
		<path fill="#434D5E" d="M812.7,349.3c0-0.1-0.5-0.1-0.6-0.1c-0.1,0.3-0.2,2.7-0.1,2.8c0.6,0.2,0.6,0,0.7-0.6
			c0-0.5,0.1-0.9,0.1-1.4C812.7,349.8,812.7,349.6,812.7,349.3z"/>
		<path fill="#4D576B" d="M804.5,349.5c0-0.1-0.5,0-0.6-0.1c0,0.3-0.2,2.7-0.1,2.8c0.6,0.2,0.6,0,0.7-0.6c0-0.5,0.1-0.9,0.1-1.4
			C804.5,350,804.5,349.8,804.5,349.5z"/>
		<g>
			<path fill="#EBE7E3" d="M840.9,316.7c-0.7-0.6-2.1-0.9-3-1c-1.3-0.3-2.1-0.8-3.6-1c-0.6-0.1-1,0.1-1.3,0.7
				c-0.2,0.5-0.1,0.9,0.3,1.4c-0.7,0.5-1.1,1.5-0.1,2.1c1.3,0.7,4.9,2,6.4,1.9c1.2-0.1,1.9-0.2,1.5-1.7
				C841.7,318,841.7,317.4,840.9,316.7z"/>
			<path fill="#D6D3CF" d="M839.7,319.2L839.7,319.2c-1.3,0-2.6-0.5-3.8-0.9c-0.6-0.2-1.1-0.4-1.7-0.6c-0.1,0-0.1-0.1-0.1-0.2
				c0-0.1,0.1-0.1,0.2-0.1c0.6,0.2,1.1,0.4,1.7,0.6c1.2,0.4,2.5,0.9,3.7,0.9c0.1,0,0.1,0.1,0.1,0.1
				C839.8,319.1,839.8,319.2,839.7,319.2z"/>
		</g>
		<path fill="#888E99" d="M833.4,420.3c-1.3-0.4-2.8-0.2-4.1-0.2c-1.9,0.1-2.8-0.2-5,0.1c-0.9,0.1-1.4,0.4-1.5,1.1
			c-0.1,0.5,0,0.9,0.5,1.3c-0.5,0.6-0.7,1.8,1,2c2.2,0.3,6.9,0.4,9,0c1.7-0.3,2.1-0.8,1.3-2.1C834.9,421.2,834.8,420.7,833.4,420.3z
			"/>
		<path fill="#4D576B" d="M829.8,422.8c-0.6,0-1.3,0-1.9-0.1c-0.8,0-1.6-0.1-2.5-0.1h0c-0.1,0-0.1-0.1-0.1-0.1
			c0-0.1,0.1-0.1,0.1-0.1c0.9,0,1.7,0,2.5,0.1c1.6,0.1,3,0.1,4.7-0.2c0.1,0,0.1,0,0.1,0.1c0,0.1,0,0.1-0.1,0.1
			C831.6,422.7,830.7,422.8,829.8,422.8z"/>
		<path fill="#888E99" d="M814.2,420.3c-1.3-0.4-2.8-0.2-4.1-0.2c-1.9,0.1-2.8-0.2-5,0.1c-0.9,0.1-1.4,0.4-1.5,1.1
			c-0.1,0.5,0,0.9,0.5,1.3c-0.5,0.6-0.7,1.8,1,2c2.2,0.3,6.9,0.4,9,0c1.7-0.3,2.1-0.8,1.3-2.1C815.8,421.2,815.7,420.7,814.2,420.3z
			"/>
		<polygon fill="#B3572D" points="808.2,347.9 804.1,347.9 804.1,296.9 808.2,296.4 		"/>
		<rect x="803.8" y="347.7" fill="#CCCCCC" width="4.8" height="1.3"/>
		<g>
			<path fill="#CCCCCC" d="M807.9,349.8c0,0.1-0.1,0.3-0.3,0.3h-2.8c-0.1,0-0.3-0.1-0.3-0.3v-1c0-0.1,0.1-0.3,0.3-0.3h2.8
				c0.1,0,0.3,0.1,0.3,0.3V349.8z"/>
		</g>
		<path fill="#4D576B" d="M810.7,422.8c-0.6,0-1.3,0-1.9-0.1c-0.8,0-1.6-0.1-2.5-0.1c0,0,0,0,0,0c-0.1,0-0.1-0.1-0.1-0.1
			c0-0.1,0.1-0.1,0.1-0.1c0.9,0,1.7,0,2.5,0.1c1.6,0.1,3,0.1,4.7-0.2c0.1,0,0.1,0,0.1,0.1c0,0.1,0,0.1-0.1,0.1
			C812.5,422.7,811.6,422.8,810.7,422.8z"/>
		<g>
			<g>
				<path fill="#C3C9C9" d="M773,344.6c-1.3,0.1-11.6,0.7-14.2,0.8c-2.8,0.1-5.6,0.5-8.4,0.7c-1.3,0.1-5.4,0.5-6.1,0.6
					c-1.5,0.2-7.9,1.2-9.5,1.4c-1,0.1-2.5,0.6-3,1.6c-0.3,0.5-0.5,1.6-0.2,2.1c1,1.5,4.6,1.6,8,1.5c8.9-0.3,16.7-0.4,34.1-1.6
					C774.5,351.7,773,344.6,773,344.6z"/>
				<path fill="#4D4D4D" d="M744.4,346.8C744.4,346.8,744.4,346.8,744.4,346.8c0.7-0.1,4.8-0.5,6.1-0.6c2.8-0.3,5.6-0.6,8.4-0.7
					c2.6-0.1,12.9-0.7,14.2-0.8c0,0,1.4,7,0.8,7.1h0c-17.4,1.2-25.3,1.4-34.1,1.6c-3.3,0.1-7,0-8-1.5c-0.3-0.5-0.1-1.6,0.2-2.1
					c0.5-0.9,2-1.5,3-1.6C736.5,348,742.8,346.9,744.4,346.8 M744.3,346c-0.8,0.1-3,0.4-5,0.8c-1.8,0.3-3.7,0.6-4.5,0.7
					c-1,0.1-2.8,0.7-3.6,1.9c-0.4,0.7-0.7,2.1-0.2,2.9c1.2,1.8,4.8,1.9,8.6,1.8c0.9,0,1.7-0.1,2.6-0.1c7.8-0.2,15.9-0.5,31.6-1.6
					l0,0l0,0c0.2,0,0.5-0.2,0.6-0.4c0.3-0.3,0.4-0.9-0.1-4.3c-0.3-1.7-0.6-3.3-0.6-3.3l-0.1-0.7l-0.7,0.1
					c-1.3,0.1-11.5,0.7-14.2,0.8c-2.2,0.1-4.5,0.3-6.7,0.5c-0.6,0.1-1.2,0.1-1.8,0.2C749.1,345.5,745,345.9,744.3,346L744.3,346
					L744.3,346L744.3,346z"/>
			</g>
			<path fill="#DF6C39" d="M821.6,343.8c-1.5-1.2-3.7-1.8-5.5-2.4c-1.1-0.3-2.2-0.8-3.2-1.3c-0.7-0.3-1.4-0.6-2.2-0.8
				c-1.4-0.4-2.9-0.3-4.3-0.4c-1.5-0.1-2.8-0.7-4.3-0.7c-0.1-1.5-0.5-2.8-0.8-4.2c-0.4-1.5-1.5-3.1-3.1-3.3
				c-2.3-0.2-4.5,0.5-6.7,0.8c-2.7,0.4-5.4,1-8.1,1.8c-1.1,0.3-2.2,0.7-3.4,0.9c-0.7,0.1-1.6,0-2.3,0.5c-0.6,0.4-1.1,0.7-1.5,1.3
				c-0.5,0.6-0.9,1.4-1.4,2c-1,1.2-1.9,2.8-2.1,4.4c-0.2,1.4-0.2,2.7,0,4.1c0.3,2.1,0.3,4.4,0.7,6.6c0.1,0.7,0.1,2.1,0.7,2.5
				c0.6,0.5,1.8,0.2,2.5,0.5c1.4,0.5,0.7,2.3,2.1,2.7c1,0.3,2.5-0.2,3.5-0.3c1.3-0.1,2.5-0.3,3.7-0.6c3.2-0.8,6.4-1.6,9.7-1.9
				c1.8-0.1,3.6-0.1,5.4-0.5c0.7-0.1,1.6-0.3,2.3-0.5c0.6-0.2,0.9-0.8,1.4-1c0.4-0.2,1.3-0.1,1.8-0.2c2.1-0.2,4.2-0.6,6.3-0.9
				c1.8-0.2,3.6-0.3,5.4-0.6c1.2-0.2,2.4-0.3,3.4-0.9c0.9-0.5,1.5-1.3,1.5-2.4C823.1,346.8,823.2,345,821.6,343.8z M820.7,349.8
				c-0.5,0.4-1.9,0-2.5,0c-1.1,0.1-2.2,0.2-3.4,0.3c-2,0.1-4,0.3-6,0.4c-1.2,0.1-2.9,0.3-3.9-0.5c-0.8-0.7-1.1-2-1.3-2.9
				c-0.7-2.5,1.3-3.1,3.3-3.1c1.1,0,2,0,3-0.1c1.1-0.2,1.9,0.2,2.9,0.5c1.3,0.4,2.6,0.4,3.9,0.6c0.6,0.1,1.2,0.2,1.7,0.3
				c1,0.2,2,0.7,2.4,1.8C821,347.6,821.3,349.4,820.7,349.8z"/>
			<path fill="#1E1A1B" d="M788.9,331.9c-0.7-1.1-1.6-2.4-2.4-3.1c-1.2-1.1-2.9-2.4-4.7-2.4c-0.9,0-2.1,0.2-2.6,1
				c-0.5,1-0.2,2.1-0.2,3.1c0,1.3,0.1,2.4,0.1,3.7c-0.4,0-1-0.2-1.1-0.3c-0.4-0.2-0.6-0.5-0.9-0.9c-0.8-0.9-1.4-1.7-1.8-2.9
				c-0.4-1.1-0.7-1.9-0.6-3.2c0-0.5,0.1-1.1,0.3-1.6c0.1-0.5,0.8-1.6,0.6-2.1c-0.2-0.3-0.5-0.4-0.9-0.4c-0.7,0-1.6,0-2.3,0.3
				c-0.9,0.3-1.3,1.6-1.5,2.4c-0.2,1.2-0.5,2.4-0.4,3.6c0.1,0.9,0.3,2,0.6,2.9c0.8,2.4,1.9,4.5,3.2,6.3c1.6,2.1,3.4,3.7,5.5,4.4
				c0.1,1,0.7,7.2,0.6,9.2c-0.1,1.7-0.4,3.4-1.5,4.8c-0.2,0.3-0.6,0.5-0.8,0.9c-0.1,0.1-0.1,0.2-0.1,0.4c0,0.2,0,0.5,0.1,0.7
				c0.1,0.5,0.4,0.3,0.8,0.3c0.8,0,1.6-0.1,2.2-0.6c0.1-0.1,0.2-0.2,0.3-0.4c2.2-3.4,2.3-5,2.4-7.9c0-0.6-0.3-5.9-0.5-6.8
				c1.6-0.2,2.2-0.3,2.3-0.8c0.1-0.4,0-1-0.1-1.4c-0.4-1-1.6-0.8-2.4-0.7c0-0.5-0.3-4.1-0.6-7.1c-0.1-1.7-0.3-3.1-0.3-3.7
				c0.5,0,1,0.5,1.3,0.8c0.5,0.5,1,1.2,1.4,1.8c0.1,0.1,0.1,0.2,0.2,0.3C786,332.6,787.7,332.2,788.9,331.9z M779.7,340.2
				c-0.5-0.4-1-0.8-1.4-1.3c-0.7-0.7-1.9-1.8-1.6-3c0,0,0-0.1,0-0.1c0.1-0.4,0.4-0.7,0.7-0.9c0.1-0.1,0.3-0.2,0.5-0.3
				c0.2-0.1,1-0.2,1.4-0.2C779.3,334.7,779.7,339,779.7,340.2z"/>
		</g>
		<path fill="#DEB249" d="M810.6,340.9c0,0-1.3,1.5-1.3,1.6c-0.3,0.3-0.6,0.9-0.6,1.4c0,0.8,1.8,1.2,2.3,0.5c0,0.6,1.6,1.1,2.3,0.4
			c0.1,0.5,1.4,1,2.2,0.4c0.2,0.9,2,1.2,2.7,0c0.3-0.5,1.5-1.5,1.5-2c0-0.4-0.4-0.7-0.3-1.2c0-0.3,0.3-0.7,0.5-0.9
			c0.2-0.1,0.8-0.1,0.8-0.3c0-0.2-0.4-0.3-0.5-0.4c-0.3-0.2-2.8-1.7-3.9-2.3c-0.5-0.2-1.4-0.8-1.9-0.8c-0.4,0-0.1,0.4-0.2,0.7
			c0,0.3-0.5,1.1-0.7,1.3c-0.3,0.3-0.6,0.4-1,0.4C811.6,339.8,811.1,340.3,810.6,340.9z"/>
		<path fill="#DEB249" d="M784.5,326.9c0,0.4,0,1.1-0.1,1.4c-0.1,0.8-0.5,2.1-2,2.5c0-0.3-0.1-0.7-0.1-0.9c0.3-0.5,0.4-0.6,0.5-1.1
			c0.2-0.8,0.1-1.5-0.6-2.1c-0.4-0.3-1-0.3-1.6-0.2c-1.4,0.4-1.5,1.3-1.6,2.2c0,0.3,0,0.7,0.1,1.1c0,0.1-0.1,0.1-0.2,0.1
			c-0.4-0.2-0.7-0.7-0.7-1.1c0-0.6,0-1.6,0.4-2.1c0.8-1.3,1.5-1.6,2-1.8c0.2-0.5,0.5-1.1,0.6-1.6c0.1-0.6-0.2-0.5-0.4-0.9
			c-0.3-0.9,1.6,0.1,1.8,0.2c1.3,0.7,2.5,1.6,3.7,2.4c0.1,0.1,0.8,0.4,0.7,0.7c-0.1,0.2-0.7,0-0.9,0
			C785.4,325.8,784.8,326.3,784.5,326.9z"/>
		<path fill="#B38F3B" d="M812.3,342.8C812.3,342.8,812.3,342.8,812.3,342.8c-0.1,0-0.1-0.1-0.1-0.2c0.2-0.4,0.5-0.8,1-1.2
			c0.1,0,0.1,0,0.2,0c0,0.1,0,0.1,0,0.2c-0.4,0.3-0.7,0.7-0.9,1.1C812.4,342.8,812.3,342.8,812.3,342.8z"/>
		<path fill="#B38F3B" d="M814.4,343.1C814.4,343.1,814.4,343.1,814.4,343.1c-0.1-0.1-0.1-0.2-0.1-0.2c0.1-0.1,0.1-0.2,0.2-0.3
			c0.1-0.2,0.3-0.5,0.6-0.7c0.1,0,0.1,0,0.2,0.1c0,0.1,0,0.1-0.1,0.2c-0.2,0.1-0.3,0.3-0.5,0.5C814.7,342.8,814.6,342.9,814.4,343.1
			C814.5,343.1,814.5,343.1,814.4,343.1z"/>
		<path fill="#B38F3B" d="M816.1,344.1C816,344.1,816,344.1,816.1,344.1c-0.1,0-0.1-0.1-0.1-0.1c0.1-0.5,0.4-1.1,0.7-1.5
			c0-0.1,0.1-0.1,0.2,0c0.1,0,0.1,0.1,0,0.2c-0.3,0.4-0.6,0.9-0.7,1.4C816.2,344.1,816.1,344.1,816.1,344.1z"/>
		<path fill="#B38F3B" d="M818.3,342C818.3,342,818.3,342,818.3,342c-0.9-0.7-2-1.1-3-1.4c-0.3-0.1-0.7-0.2-1.1-0.3
			c-0.1,0-0.1-0.1-0.1-0.2c0-0.1,0.1-0.1,0.2-0.1c0.3,0.1,0.7,0.2,1,0.3c1.1,0.3,2.1,0.7,3,1.4C818.4,341.8,818.5,341.9,818.3,342
			C818.4,342,818.3,342,818.3,342z"/>
		<path fill="#B38F3B" d="M783.6,326.3C783.5,326.3,783.5,326.2,783.6,326.3c-0.2-0.1-0.3-0.2-0.4-0.3c-0.5-0.5-1.1-1-1.7-1
			c-0.1,0-0.1-0.1-0.1-0.1c0-0.1,0.1-0.1,0.1-0.1h0c0.7,0,1.3,0.6,1.8,1.1c0.1,0.1,0.2,0.2,0.3,0.3
			C783.7,326.1,783.7,326.2,783.6,326.3C783.6,326.2,783.6,326.3,783.6,326.3z"/>
		<path fill="#CCBB95" d="M786,317.6C786,317.6,786,317.6,786,317.6c-0.8-0.3-2.2-0.6-2.9-0.1c-0.1,0-0.1,0-0.2,0c0-0.1,0-0.1,0-0.2
			c0.8-0.5,2.3-0.2,3.1,0.1c0.1,0,0.1,0.1,0.1,0.2C786.1,317.6,786.1,317.6,786,317.6z"/>
		<path fill="#434D5E" d="M826.9,348.7c0-0.1-0.5-0.1-0.6-0.1c0,0.3-0.2,2.7-0.1,2.8c0.6,0.2,0.6,0,0.7-0.6c0-0.5,0.1-0.9,0.1-1.4
			C827,349.2,827,349,826.9,348.7z"/>
		<path fill="#434D5E" d="M835,348.6c0-0.1-0.5,0-0.6,0c0,0.2,0,2.5,0.1,2.5c0.6,0.1,0.6,0,0.6-0.6c0-0.4,0-0.8,0-1.3
			C835.1,349,835.1,348.8,835,348.6z"/>
		<path fill="#373E4D" d="M835,355.8C835,355.8,835,355.8,835,355.8c-0.1,0-0.3,0-0.4,0c-0.4,0-0.7,0-1.1-0.2
			c-1.1-0.4-1.5-1.3-1.7-2.3c-0.1-0.4-0.1-0.8,0-1.1c0-0.2,0-0.4,0-0.6c0-0.1,0.1-0.2,0.2-0.2c0.1,0,0.2,0.1,0.2,0.2
			c0,0.2,0,0.4,0,0.6c0,0.3,0,0.7,0,1c0.2,1,0.5,1.7,1.4,2c0.4,0.1,0.7,0.1,1,0.1c0.1,0,0.2,0,0.4,0c0.1,0,0.2,0.1,0.2,0.3
			C835.3,355.7,835.1,355.8,835,355.8z"/>
		<path fill="#373E4D" d="M819.2,360.2c-0.3,0-0.6-0.1-0.9-0.3c-1-0.8-1-2.5-1-4.1c0-0.8,0-1.6-0.1-2.1c0-0.1,0-0.3,0.2-0.3
			c0.1,0,0.3,0,0.3,0.2c0.2,0.6,0.2,1.4,0.2,2.2c0,1.4,0,3,0.8,3.7c0.3,0.2,0.6,0.2,1,0.2c0.1,0,0.3,0.1,0.3,0.2
			c0,0.1-0.1,0.3-0.2,0.3C819.5,360.1,819.4,360.2,819.2,360.2z"/>
	</g>
</g>
<g id="Fox">
	<path fill="#4C2B0F" d="M158.3,436.9c0,0-56.1,25-56.1,54.8c0,50.5,57.8,61.3,131.6,61.3c18.3,0,88.2,4.7,88.2-9.7
		c0-9.4,2.2-64.7-38.6-66c-38.3-1.3-56,19.4-57,48.2c-0.4,11.5-17.7,7.8-34,6.5c-16.3-1.3-68.6-3.2-68.6-39.7
		c0-21,59.7-51.6,59.7-51.6L158.3,436.9z"/>
	<path fill="#2D1809" d="M157.9,436.8l28.6,1c0,0-2.8,5.2-13,5.3C163.3,443.3,157.9,436.8,157.9,436.8z"/>
	<g>
		<defs>
			<path id="SVGID_16_" d="M158.1,436.8c0,0-56.1,25-56.1,54.8c0,50.5,57.8,61.3,131.6,61.3c18.3,0,88.2,4.7,88.2-9.7
				c0-9.4,2.2-64.7-38.6-66c-38.3-1.3-56,19.4-57,48.2c-0.4,11.5-17.7,7.8-34,6.5s-68.6-3.2-68.6-39.7c0-21,59.7-51.6,59.7-51.6
				L158.1,436.8z"/>
		</defs>
		<clipPath id="SVGID_17_">
			<use xlink:href="#SVGID_16_"  overflow="visible"/>
		</clipPath>
		<path clip-path="url(#SVGID_17_)" fill="#663D1F" d="M323.6,543.8c0-8.2-41.3-10.7-52.8-10.7c-59.8,0-26.6,17.2-71.8,17.2
			c-18.9,0-23.1,1.1-59.5-4.3c0.8,0.3,106.6,20,116.3,20.2S323.6,563.1,323.6,543.8z"/>
	</g>
	<g>
		<path fill="#B8681A" d="M280.9,506c0,0,8,1.8,11,3.7c3,1.9,5.7,3.6,8.4,7.9c3.4,5.5,0.7,29.2,0.7,29.2l-63-1.3
			c0,0-1.4-6.9,5.1-7.9c6.5-1,27.7,0,28.3,0c0.6,0-4.8-3.7-7.1-6.9c-2.3-3.2-5.2-8.9-6-11.5c-0.7-2.3-2.4-9.1,6.1-12.2
			C272.8,503.9,280.9,506,280.9,506z"/>
		<path fill="#C68965" d="M280.3,526.9c3.4-0.9,9.7,1.8,12.5,4.9c2.8,3.1,6.1,14.9,6.1,14.9l-37.7-0.8c0,0-1.5-3.1,2.1-3.4
			c3.6-0.3,13.5-0.4,13.5-0.4s-3.9-8.1-2.7-10.5C275.5,528.8,276.9,527.8,280.3,526.9z"/>
		<polygon fill="#C68965" points="268.2,528.8 260.8,537.2 265.5,537.2 269.9,530 		"/>
		<path fill="#602200" d="M252.2,509.2c-0.2,12.4,4.3,14.6,6,15.6c1.9,1.1,7,3.9,12.5,0.1c5.5-3.8,5.9-12.4,6.1-16.9
			c0.2-4.5-6.5-6.5-6.5-6.5l-11.4,0.1C259,501.7,252.3,503.5,252.2,509.2z"/>
		<path fill="#B8681A" d="M260.1,506.1c0,0,0.1-0.7-0.4-2.2c-0.4-1.5-1.4-3.4-3.6-6.3c-2.2-3-3.2-1.6-4.4,3.6
			c-1.1,5.2,0.8,6.4,1,6.4c0,0-0.8,5.4,1.1,9.5c1.9,4.1,6.4,8.5,10.8,7.8c4.4-0.7,9.2-2,10.3-8.3c1.1-6.3,2-8.7,2-8.7s1.8-1,2.4-4.3
			c0.6-3.3,0.7-4.2,0-6c-0.7-1.8-1.4-1.9-3.3-0.6c-2,1.3-4.7,3.9-5.3,5.5c-0.6,1.6-0.8,3.7-0.8,3.7"/>
		<path fill="none" stroke="#443200" stroke-miterlimit="10" d="M255.6,506.3c0-0.2-0.7-1.8-0.5-3.1c0.2-1.3,0.7-1.5,0.9-0.3
			c0.2,1.2,0.4,3.4,0.4,3.4"/>
		<path fill="none" stroke="#443200" stroke-miterlimit="10" d="M272.9,505.7c0,0,1-2.6,1.7-3.2c0.8-0.6,1.5-0.5,0.8,0.4
			c-0.6,0.9-1.7,3.4-1.7,3.4"/>
		<path fill="#DEBDAA" d="M269,521.8l-0.5-1v-4.2l5.8,5.2c0,0-2.9,6.2-9.4,5.6c-6.5-0.6-11.1-5.6-11.1-5.6l2.2-2l3.5-3.2"/>
		<path fill="#C68965" d="M256.4,512.2c0.3,0.2,3.3,4.4,3.3,4.4l0.6,5.5h8.3v-5.5l3.4-4.4"/>
		<path fill="#EBEEE8" d="M264.9,524.8c-1.8,0.1-4.2-1-4.6-1.9c-0.4-0.8-0.2-2.7,1.3-2.2c1.5,0.5,1.3,1.3,1.9,2
			c0.7,0.9,1.5,1,2.4,0.8c0.9-0.2,0.5-2.9,1.9-2.9c1.5,0,1.6,1.2,1.6,2.1C269.4,524.9,264.9,524.8,264.9,524.8z"/>
		<path fill="#15131D" d="M264.5,520.4c1.5-0.1,2.3,0.6,2.4,1.9c0.1,1.3-0.9,1.3-2.2,1.5c-1.2,0.1-1.9-0.5-2-1.7
			C262.6,520.9,264.5,520.4,264.5,520.4z"/>
		<path fill="#A0979E" d="M261.8,524.1c0,0,0.3,1.5,2.4,1.5c2.1,0,1.6,0.2,2.4,0c0.8-0.2,1.5-1.5,1.5-1.5s-2.4,0.7-3.2,0.7
			C264.2,524.8,261.8,524.1,261.8,524.1z"/>
		<line fill="none" stroke="#443200" stroke-miterlimit="10" x1="257.7" y1="511" x2="261.8" y2="511"/>
		<line fill="none" stroke="#443200" stroke-miterlimit="10" x1="267.3" y1="511" x2="270.8" y2="511"/>
		<path fill="#15131D" d="M259,511c0.1,0-0.1,0.8,0.7,0.9c0.8,0.1,1.1-0.9,1.1-0.9H259z"/>
		<path fill="#15131D" d="M268.1,511c0.1,0-0.1,0.8,0.7,0.9c0.8,0.1,1.1-0.9,1.1-0.9H268.1z"/>
	</g>
</g>
<g id="Stones">
	<g>
		<path fill="#654D00" d="M111.8,437.2c1.1-5,2-5.2-1.5-8.3c-3.5-3.1-6.6-5.8-8.1-7.2c-1.4-1.4-1.7,3-2.1,5.4
			c-0.4,2.4-1.2,3.9,0.7,5.4C102.6,434,111.6,438.5,111.8,437.2z"/>
		<path fill="#443200" d="M95.8,436.4c1.7,0.1,16.7,2,16,0.8c-0.7-1.2-10.8-6.8-12.1-6.4C98.4,431.2,95.8,436.4,95.8,436.4z"/>
		<path fill="#8E6500" d="M101.6,421.4c-2,0.9-7.8,8.4-8.2,10.1c-0.4,1.8-0.3,1.3,0.7,2.9c1,1.6,1.1,1.9,1.8,1.9
			c0.6,0,3.7-4.1,4.3-5.6C100.8,429.4,102.6,420.9,101.6,421.4z"/>
	</g>
	<g>
		<path fill="#654D00" d="M198.3,442.6c-1-3.2-2.1-3.3,1.9-5.4c4-2.1,7.6-3.9,9.2-4.9c1.6-1,1.8,1.9,2.2,3.4
			c0.4,1.5,1.2,2.5-0.9,3.5C208.8,440.2,198.6,443.5,198.3,442.6z"/>
		<path fill="#443200" d="M216.3,441.6c-1.9,0.1-18.7,1.8-17.9,1c0.8-0.8,12.3-4.7,13.8-4.5C213.6,438.3,216.3,441.6,216.3,441.6z"
			/>
		<path fill="#8E6500" d="M210.4,432.1c2.2,0.5,8.5,5.2,8.8,6.3c0.4,1.1,0.3,0.8-0.9,1.9c-1.2,1.1-1.3,1.3-2.1,1.3
			c-0.7,0.1-4-2.6-4.7-3.5C211,437.2,209.1,431.8,210.4,432.1z"/>
	</g>
	<g>
		<path fill="#654D00" d="M225.3,440.6c-2.1-0.6-2.9-0.6-2.5-2.3c0.5-1.7,1.2-1.5,1.2-1.5s1,2.6,2.2,2.8c1.2,0.2,1.7,0.5,1.7,0.5
			S226.9,441,225.3,440.6z"/>
		<path fill="#8E6500" d="M224,436.7c1.9-0.5,2.1-0.7,4,0c1.8,0.7,2.2,2.6,0,3.3c-2.2,0.6-2.6-0.6-3.3-1.1
			C224,438.3,224,436.7,224,436.7z"/>
	</g>
	<g>
		<path fill="#654D00" d="M922.5,426.2c-3.9-1.1-5.5-1.1-4.6-4.3c0.9-3.2,2.2-2.8,2.2-2.8s1.9,4.7,4.1,5.2c2.2,0.4,3.2,0.9,3.2,0.9
			S925.4,427,922.5,426.2z"/>
		<path fill="#8E6500" d="M920,419.1c3.6-0.9,4-1.4,7.4,0c3.4,1.4,4.1,4.9,0,6.1c-4.1,1.2-4.8-1.1-6.1-2.1
			C919.9,422,920,419.1,920,419.1z"/>
	</g>
	<g>
		<path fill="#654D00" d="M876.4,427.5c0.9-4.2,1.7-4.4-1.3-7c-2.9-2.6-5.6-4.9-6.8-6.1c-1.2-1.2-1.5,2.5-1.8,4.6
			c-0.4,2-1,3.3,0.6,4.5C868.6,424.7,876.2,428.6,876.4,427.5z"/>
		<path fill="#443200" d="M862.9,426.8c1.4,0.1,14.1,1.7,13.5,0.7c-0.6-1-9.1-5.7-10.2-5.4C865,422.4,862.9,426.8,862.9,426.8z"/>
		<path fill="#8E6500" d="M867.7,414.2c-1.7,0.8-6.6,7.1-6.9,8.6c-0.3,1.5-0.3,1.1,0.6,2.5c0.9,1.4,1,1.6,1.5,1.6
			c0.5,0,3.1-3.5,3.7-4.7C867.1,420.9,868.7,413.7,867.7,414.2z"/>
	</g>
</g>
<g id="Man">
</g></g>
</svg>
